<?xml version="1.0" encoding="utf-8"?>
<!-- Generator: Adobe Illustrator 28.0.0, SVG Export Plug-In . SVG Version: 6.00 Build 0)  -->
<svg version="1.1" xmlns="http://www.w3.org/2000/svg" xmlns:xlink="http://www.w3.org/1999/xlink" x="0px" y="0px"
	 viewBox="0 0 907.25 770.12" style="enable-background:new 0 0 907.25 770.12;" xml:space="preserve">
<style type="text/css">
	.st0{fill:none;stroke:#231F20;stroke-miterlimit:10;}
</style>
<g id="cuts">
	<g>
		<path class="st0" d="M842.01,609.44H61.25c-14.13,0-25.58-11.45-25.58-25.58V356.59c0-14.13,11.45-25.58,25.58-25.58h780.76
			c14.13,0,25.58,11.45,25.58,25.58v227.26C867.59,597.98,856.14,609.44,842.01,609.44z"/>
		<circle class="st0" cx="48.46" cy="382.47" r="3.4"/>
		<circle class="st0" cx="87.13" cy="343.8" r="3.4"/>
		<circle class="st0" cx="48.46" cy="557.97" r="3.4"/>
		<circle class="st0" cx="87.13" cy="596.64" r="3.4"/>
		<circle class="st0" cx="208.63" cy="596.64" r="3.4"/>
		<circle class="st0" cx="854.8" cy="382.47" r="3.4"/>
		<circle class="st0" cx="816.13" cy="343.8" r="3.4"/>
		<circle class="st0" cx="512.57" cy="343.8" r="3.4"/>
		<circle class="st0" cx="854.8" cy="557.97" r="3.4"/>
		<circle class="st0" cx="816.13" cy="596.64" r="3.4"/>
		<circle class="st0" cx="546.52" cy="596.64" r="3.4"/>
		<circle class="st0" cx="478.63" cy="596.64" r="3.4"/>
		<circle class="st0" cx="195.13" cy="343.8" r="3.4"/>
		<path class="st0" d="M842.01,609.54H61.25c-14.13,0-25.58-11.45-25.58-25.58V356.7c0-14.13,11.45-25.58,25.58-25.58h780.76
			c14.13,0,25.58,11.45,25.58,25.58v227.26C867.59,598.09,856.14,609.54,842.01,609.54z"/>
	</g>
	<path class="st0" d="M61.25,35.66h780.76c14.13,0,25.58,11.45,25.58,25.58v227.26c0,14.13-11.45,25.58-25.58,25.58H61.25
		c-14.13,0-25.58-11.45-25.58-25.58V61.25C35.66,47.12,47.12,35.66,61.25,35.66z"/>
	<rect x="67.29" y="67.28" class="st0" width="39.69" height="39.69"/>
	<rect x="121.29" y="67.28" class="st0" width="39.69" height="39.69"/>
	<rect x="175.29" y="67.28" class="st0" width="39.69" height="39.69"/>
	<rect x="229.29" y="67.28" class="st0" width="39.69" height="39.69"/>
	<rect x="283.29" y="67.28" class="st0" width="39.69" height="39.69"/>
	<rect x="336.9" y="67.28" class="st0" width="39.69" height="39.69"/>
	<rect x="67.29" y="121.28" class="st0" width="39.69" height="39.69"/>
	<rect x="121.29" y="121.28" class="st0" width="39.69" height="39.69"/>
	<rect x="175.29" y="121.28" class="st0" width="39.69" height="39.69"/>
	<rect x="229.29" y="121.28" class="st0" width="39.69" height="39.69"/>
	<rect x="283.29" y="121.28" class="st0" width="39.69" height="39.69"/>
	<rect x="336.9" y="121.28" class="st0" width="39.69" height="39.69"/>
	<rect x="67.29" y="175.28" class="st0" width="39.69" height="39.69"/>
	<rect x="121.29" y="175.28" class="st0" width="39.69" height="39.69"/>
	<rect x="175.29" y="175.28" class="st0" width="39.69" height="39.69"/>
	<rect x="229.29" y="175.28" class="st0" width="39.69" height="39.69"/>
	<rect x="67.29" y="242.78" class="st0" width="39.69" height="39.69"/>
	<rect x="121.29" y="242.78" class="st0" width="39.69" height="39.69"/>
	<rect x="175.29" y="242.78" class="st0" width="39.69" height="39.69"/>
	<rect x="229.29" y="242.78" class="st0" width="39.69" height="39.69"/>
	<rect x="283.29" y="175.28" class="st0" width="39.69" height="39.69"/>
	<rect x="336.9" y="175.28" class="st0" width="39.69" height="39.69"/>
	<rect x="674.79" y="67.28" class="st0" width="39.69" height="39.69"/>
	<rect x="620.79" y="67.28" class="st0" width="39.69" height="39.69"/>
	<rect x="566.79" y="67.28" class="st0" width="39.69" height="39.69"/>
	<rect x="512.79" y="67.28" class="st0" width="39.69" height="39.69"/>
	<rect x="458.79" y="67.28" class="st0" width="39.69" height="39.69"/>
	<rect x="404.79" y="67.28" class="st0" width="39.69" height="39.69"/>
	<rect x="674.79" y="121.28" class="st0" width="39.69" height="39.69"/>
	<rect x="620.79" y="121.28" class="st0" width="39.69" height="39.69"/>
	<rect x="566.79" y="121.28" class="st0" width="39.69" height="39.69"/>
	<rect x="512.79" y="121.28" class="st0" width="39.69" height="39.69"/>
	<rect x="458.79" y="121.28" class="st0" width="39.69" height="39.69"/>
	<rect x="404.79" y="121.28" class="st0" width="39.69" height="39.69"/>
	<rect x="674.79" y="175.28" class="st0" width="39.69" height="39.69"/>
	<rect x="620.79" y="175.28" class="st0" width="39.69" height="39.69"/>
	<rect x="566.79" y="175.28" class="st0" width="39.69" height="39.69"/>
	<rect x="512.79" y="175.28" class="st0" width="39.69" height="39.69"/>
	<rect x="688.29" y="242.78" class="st0" width="39.69" height="39.69"/>
	<rect x="742.29" y="242.78" class="st0" width="39.69" height="39.69"/>
	<rect x="742.29" y="188.78" class="st0" width="39.69" height="39.69"/>
	<rect x="770.35" y="95.35" class="st0" width="37.56" height="37.56"/>
	<rect x="796.29" y="242.78" class="st0" width="39.69" height="39.69"/>
	<rect x="620.79" y="242.78" class="st0" width="39.69" height="39.69"/>
	<rect x="566.79" y="242.78" class="st0" width="39.69" height="39.69"/>
	<rect x="512.79" y="242.78" class="st0" width="39.69" height="39.69"/>
	<rect x="458.79" y="175.28" class="st0" width="39.69" height="39.69"/>
	<rect x="404.79" y="175.28" class="st0" width="39.69" height="39.69"/>
	<circle class="st0" cx="816.13" cy="114.19" r="3.4"/>
	<circle class="st0" cx="831.88" cy="156.88" r="3.4"/>
	<circle class="st0" cx="831.88" cy="71.38" r="3.4"/>
	<circle class="st0" cx="746.38" cy="71.38" r="3.4"/>
	<circle class="st0" cx="746.38" cy="156.88" r="3.4"/>
	<circle class="st0" cx="854.8" cy="262.63" r="3.4"/>
	<circle class="st0" cx="816.13" cy="301.3" r="3.4"/>
	<circle class="st0" cx="854.8" cy="87.13" r="3.4"/>
	<circle class="st0" cx="816.13" cy="48.46" r="3.4"/>
	<circle class="st0" cx="694.63" cy="48.46" r="3.4"/>
	<circle class="st0" cx="48.46" cy="262.63" r="3.4"/>
	<circle class="st0" cx="87.13" cy="301.3" r="3.4"/>
	<circle class="st0" cx="390.68" cy="301.3" r="3.4"/>
	<circle class="st0" cx="48.46" cy="87.13" r="3.4"/>
	<circle class="st0" cx="87.13" cy="48.46" r="3.4"/>
	<circle class="st0" cx="356.74" cy="48.46" r="3.4"/>
	<circle class="st0" cx="424.63" cy="48.46" r="3.4"/>
	<circle class="st0" cx="708.13" cy="301.3" r="3.4"/>
	<polygon class="st0" points="286.83,243.4 286.83,261.17 284.49,261.17 284.49,269.1 286.83,269.1 286.83,278.26 305.96,278.26 
		305.96,269.1 310.29,269.1 310.29,282.43 349.97,282.43 349.97,269.1 354.29,269.1 354.29,278.26 373.43,278.26 373.43,269.1 
		375.77,269.1 375.77,261.17 373.43,261.17 373.43,243.4 368.54,243.4 368.54,239.99 359.18,239.99 359.18,243.4 354.29,243.4 
		354.29,256.06 349.97,256.06 349.97,242.74 310.29,242.74 310.29,256.06 305.96,256.06 305.96,243.4 301.07,243.4 301.07,239.99 
		291.72,239.99 291.72,243.4 	"/>
	<polygon class="st0" points="408.33,243.4 408.33,261.17 405.99,261.17 405.99,269.1 408.33,269.1 408.33,278.26 427.46,278.26 
		427.46,269.1 431.79,269.1 431.79,282.43 471.47,282.43 471.47,269.1 475.79,269.1 475.79,278.26 494.93,278.26 494.93,269.1 
		497.27,269.1 497.27,261.17 494.93,261.17 494.93,243.4 490.04,243.4 490.04,239.99 480.68,239.99 480.68,243.4 475.79,243.4 
		475.79,256.06 471.47,256.06 471.47,242.74 431.79,242.74 431.79,256.06 427.46,256.06 427.46,243.4 422.57,243.4 422.57,239.99 
		413.22,239.99 413.22,243.4 	"/>
	<rect x="827.63" y="193.37" class="st0" width="8.5" height="17.01"/>
	<path class="st0" d="M61.25,35.56h780.76c14.13,0,25.58,11.45,25.58,25.58V288.4c0,14.13-11.45,25.58-25.58,25.58H61.25
		c-14.13,0-25.58-11.45-25.58-25.58V61.14C35.67,47.01,47.12,35.56,61.25,35.56z"/>
	<g>
		<g>
			<g id="LINE_00000129181828261140087560000005819411735754278299_">
				<line class="st0" x1="471.47" y1="282.47" x2="471.47" y2="269.14"/>
			</g>
			<g id="LINE_00000088131889158947874120000005201319803860005274_">
				<line class="st0" x1="471.47" y1="269.14" x2="475.79" y2="269.14"/>
			</g>
			<g id="LINE_00000034067238994247804410000017378164331218762657_">
				<line class="st0" x1="475.79" y1="269.14" x2="475.79" y2="278.3"/>
			</g>
			<g id="LINE_00000176017017475874363910000003391043549751401382_">
				<line class="st0" x1="475.79" y1="278.3" x2="494.93" y2="278.3"/>
			</g>
			<g id="LINE_00000101806191327174279190000000377633560308234369_">
				<line class="st0" x1="494.93" y1="278.3" x2="494.93" y2="269.14"/>
			</g>
			<g id="LINE_00000079459118102030047560000002259497478933004961_">
				<line class="st0" x1="494.93" y1="269.14" x2="497.27" y2="269.14"/>
			</g>
			<g id="LINE_00000120529100460613461810000015334268588532121755_">
				<line class="st0" x1="497.27" y1="269.14" x2="497.27" y2="261.21"/>
			</g>
			<g id="LINE_00000177452499088488587920000003844680396339665844_">
				<line class="st0" x1="497.27" y1="261.21" x2="494.93" y2="261.21"/>
			</g>
			<g id="LINE_00000136383199836039582790000012579643082824741536_">
				<line class="st0" x1="494.93" y1="261.21" x2="494.93" y2="243.44"/>
			</g>
			<g id="LINE_00000154401920678865960940000014212683249002281861_">
				<line class="st0" x1="494.93" y1="243.44" x2="490.04" y2="243.44"/>
			</g>
			<g id="LINE_00000107577793388648506010000001666245029852576189_">
				<line class="st0" x1="490.04" y1="243.44" x2="490.04" y2="240.03"/>
			</g>
			<g id="LINE_00000171678857144595484690000000615022736038465953_">
				<line class="st0" x1="490.04" y1="240.03" x2="480.69" y2="240.03"/>
			</g>
			<g id="LINE_00000091697382431829272110000016069966837574712197_">
				<line class="st0" x1="480.69" y1="240.03" x2="480.69" y2="243.44"/>
			</g>
			<g id="LINE_00000046320480709138053620000001754146057048757677_">
				<line class="st0" x1="480.69" y1="243.44" x2="475.79" y2="243.44"/>
			</g>
			<g id="LINE_00000016071661631970621790000016441521039360802466_">
				<line class="st0" x1="475.79" y1="243.44" x2="475.79" y2="256.11"/>
			</g>
			<g id="LINE_00000142177985114760874070000016895400118035579012_">
				<line class="st0" x1="475.79" y1="256.11" x2="471.47" y2="256.11"/>
			</g>
			<g id="LINE_00000158002998023203505320000018263253369597286057_">
				<line class="st0" x1="471.47" y1="256.11" x2="471.47" y2="242.78"/>
			</g>
			<g id="LINE_00000160151983558089546100000014101062027453869483_">
				<line class="st0" x1="471.47" y1="242.78" x2="431.79" y2="242.78"/>
			</g>
			<g id="LINE_00000054948254707022039550000000864244246997888915_">
				<line class="st0" x1="431.79" y1="242.78" x2="431.79" y2="256.11"/>
			</g>
			<g id="LINE_00000060009351357122991180000002952998898121624738_">
				<line class="st0" x1="431.79" y1="256.11" x2="427.46" y2="256.11"/>
			</g>
			<g id="LINE_00000067198266497534323610000014388790463873331889_">
				<line class="st0" x1="427.46" y1="256.11" x2="427.46" y2="243.44"/>
			</g>
			<g id="LINE_00000042736340944186951740000000021272728109431183_">
				<line class="st0" x1="427.46" y1="243.44" x2="422.57" y2="243.44"/>
			</g>
			<g id="LINE_00000072976292257668385950000009801759676775787938_">
				<line class="st0" x1="422.57" y1="243.44" x2="422.57" y2="240.03"/>
			</g>
			<g id="LINE_00000155112215635885788190000008516684815174812588_">
				<line class="st0" x1="422.57" y1="240.03" x2="413.22" y2="240.03"/>
			</g>
			<g id="LINE_00000127039339600622386270000005706421522238520989_">
				<line class="st0" x1="413.22" y1="240.03" x2="413.22" y2="243.44"/>
			</g>
			<g id="LINE_00000178893386844473040260000008008819527844385951_">
				<line class="st0" x1="413.22" y1="243.44" x2="408.33" y2="243.44"/>
			</g>
			<g id="LINE_00000042016068308964655070000003928557340197201572_">
				<line class="st0" x1="408.33" y1="243.44" x2="408.33" y2="261.21"/>
			</g>
			<g id="LINE_00000114043808286421925020000001980563208628937600_">
				<line class="st0" x1="408.33" y1="261.21" x2="405.99" y2="261.21"/>
			</g>
			<g id="LINE_00000158026062821482784570000007044866303126360205_">
				<line class="st0" x1="405.99" y1="261.21" x2="405.99" y2="269.14"/>
			</g>
			<g id="LINE_00000098223355276049918930000013087354723615904168_">
				<line class="st0" x1="405.99" y1="269.14" x2="408.33" y2="269.14"/>
			</g>
			<g id="LINE_00000037691669757536851710000004717804731689041598_">
				<line class="st0" x1="408.33" y1="269.14" x2="408.33" y2="278.3"/>
			</g>
			<g id="LINE_00000124849187514307706610000012551615842343160213_">
				<line class="st0" x1="408.33" y1="278.3" x2="427.46" y2="278.3"/>
			</g>
			<g id="LINE_00000130632955295752600610000008697747007354035099_">
				<line class="st0" x1="427.46" y1="278.3" x2="427.46" y2="269.14"/>
			</g>
			<g id="LINE_00000101070650928082642030000000091603508915094945_">
				<line class="st0" x1="427.46" y1="269.14" x2="431.79" y2="269.14"/>
			</g>
			<g id="LINE_00000062876932526273582070000011912313812229001646_">
				<line class="st0" x1="431.79" y1="269.14" x2="431.79" y2="282.47"/>
			</g>
			<g id="LINE_00000094613158586883747800000000378590667074615732_">
				<line class="st0" x1="431.79" y1="282.47" x2="471.47" y2="282.47"/>
			</g>
		</g>
		<polygon class="st0" points="286.83,243.44 286.83,261.21 284.49,261.21 284.49,269.14 286.83,269.14 286.83,278.3 305.96,278.3 
			305.96,269.14 310.29,269.14 310.29,282.47 349.97,282.47 349.97,269.14 354.29,269.14 354.29,278.3 373.43,278.3 373.43,269.14 
			375.77,269.14 375.77,261.21 373.43,261.21 373.43,243.44 368.54,243.44 368.54,240.03 359.18,240.03 359.18,243.44 
			354.29,243.44 354.29,256.11 349.97,256.11 349.97,242.78 310.29,242.78 310.29,256.11 305.96,256.11 305.96,243.44 
			301.07,243.44 301.07,240.03 291.72,240.03 291.72,243.44 		"/>
	</g>
	<g>
		<circle class="st0" cx="858.88" cy="723.21" r="3.4"/>
		<circle class="st0" cx="858.88" cy="637.71" r="3.4"/>
		<circle class="st0" cx="773.38" cy="637.71" r="3.4"/>
		<circle class="st0" cx="773.38" cy="723.21" r="3.4"/>
		<path class="st0" d="M867.32,734.46H764.94c-1.55,0-2.81-1.26-2.81-2.81V629.27c0-1.55,1.26-2.81,2.81-2.81h102.38
			c1.55,0,2.81,1.26,2.81,2.81v102.38C870.13,733.2,868.87,734.46,867.32,734.46z"/>
		<circle class="st0" cx="816.13" cy="680.46" r="11.34"/>
	</g>
	<circle class="st0" cx="740.78" cy="723.21" r="3.4"/>
	<circle class="st0" cx="740.78" cy="637.71" r="3.4"/>
	<circle class="st0" cx="655.28" cy="637.71" r="3.4"/>
	<circle class="st0" cx="655.28" cy="723.21" r="3.4"/>
	<path class="st0" d="M749.22,734.46H646.84c-1.55,0-2.81-1.26-2.81-2.81V629.27c0-1.55,1.26-2.81,2.81-2.81h102.38
		c1.55,0,2.81,1.26,2.81,2.81v102.38C752.03,733.2,750.77,734.46,749.22,734.46z"/>
	<circle class="st0" cx="698.03" cy="680.46" r="46.77"/>
	<g>
		<g>
			<rect x="83.41" y="552.91" transform="matrix(0.7071 -0.7071 0.7071 0.7071 -366.2212 226.8128)" width="14.52" height="5.14"/>
			<polygon points="84.69,540.93 84.69,546.06 100.09,546.06 100.09,561.47 105.23,561.47 105.23,540.93 			"/>
		</g>
		<g>
			<path d="M136.29,548.29v4.69c0,0.59,0.48,1.07,1.07,1.07s1.07-0.48,1.07-1.07v-4.25l0.29-0.29l3.9,5.19
				c0.21,0.28,0.53,0.43,0.85,0.43c0.22,0,0.45-0.07,0.64-0.21c0.47-0.35,0.57-1.02,0.21-1.49l-4.08-5.43l3.92-3.94
				c0.42-0.42,0.41-1.09,0-1.51c-0.42-0.42-1.09-0.41-1.51,0l-4.21,4.23v-3.36c0-0.59-0.48-1.07-1.07-1.07s-1.07,0.48-1.07,1.07
				V548.29C136.29,548.28,136.29,548.29,136.29,548.29z"/>
			<path d="M153.63,545.58l-1.34-2.62c-0.02-0.04-0.04-0.07-0.07-0.11l-2.96-3.72c-0.1-0.13-0.25-0.21-0.42-0.23l-5.16-0.58
				c-0.02,0-0.05,0-0.07,0l-6.51,0l-5.16,0.58c-0.16,0.02-0.32,0.1-0.42,0.23l-2.96,3.72c-0.03,0.03-0.05,0.07-0.07,0.11l-1.34,2.62
				c-0.05,0.09-0.07,0.18-0.07,0.28v16.74c0,0.3,0.21,0.56,0.51,0.61l2.51,0.48l7.04,0.55l6.54,0l7.07-0.56l2.44-0.47
				c0.29-0.06,0.51-0.31,0.51-0.61v-16.74C153.7,545.77,153.68,545.67,153.63,545.58z M152.45,562.1l-1.86,0.36l-6.95,0.55l-6.44,0
				l-6.93-0.54l-1.93-0.37v-16.08l1.24-2.43l2.76-3.47l4.83-0.54h6.4l4.87,0.54l2.76,3.47l1.24,2.43V562.1z"/>
			<path d="M148.69,555.68l-5.01,0.5l-6.5,0l-5.07-0.5c-0.35-0.04-0.65,0.22-0.68,0.56s0.22,0.65,0.56,0.68l5.14,0.5l6.62,0
				l5.07-0.5c0.34-0.03,0.6-0.34,0.56-0.68C149.34,555.9,149.04,555.65,148.69,555.68z"/>
		</g>
	</g>
	<g>
		<path d="M84.21,385.23c0-0.45,0.14-0.85,0.4-1.19c0.27-0.34,0.71-0.59,1.32-0.75v-0.15c-0.45-0.2-0.79-0.48-1.02-0.83
			c-0.23-0.35-0.35-0.74-0.35-1.19c0-0.47,0.11-0.88,0.34-1.24s0.55-0.63,0.97-0.83c0.42-0.2,0.92-0.3,1.5-0.3
			c0.59,0,1.1,0.09,1.52,0.28c0.42,0.19,0.74,0.45,0.96,0.77c0.22,0.32,0.33,0.68,0.33,1.07c0,0.43-0.12,0.79-0.37,1.08
			c-0.25,0.29-0.6,0.51-1.05,0.66v0.14c0.58,0.2,1.01,0.49,1.28,0.86c0.27,0.37,0.4,0.83,0.4,1.36c0,0.53-0.13,1-0.39,1.4
			c-0.26,0.4-0.62,0.71-1.09,0.93c-0.47,0.22-1.02,0.33-1.65,0.33c-0.66,0-1.22-0.1-1.68-0.31c-0.46-0.21-0.81-0.5-1.05-0.86
			C84.33,386.09,84.21,385.68,84.21,385.23z M88.63,385c0-0.2-0.04-0.37-0.12-0.5c-0.08-0.13-0.23-0.25-0.44-0.36
			s-0.5-0.22-0.88-0.33l-0.41-0.13c-0.28,0.16-0.48,0.34-0.61,0.55c-0.13,0.2-0.2,0.43-0.2,0.68c0,0.39,0.13,0.69,0.39,0.88
			c0.26,0.2,0.58,0.29,0.97,0.29c0.4,0,0.72-0.1,0.95-0.29S88.63,385.33,88.63,385z M87.84,382.35c0.46-0.26,0.68-0.63,0.68-1.11
			c0-0.31-0.1-0.55-0.3-0.73c-0.2-0.18-0.49-0.27-0.86-0.27c-0.37,0-0.65,0.08-0.84,0.25c-0.19,0.17-0.29,0.38-0.29,0.63
			c0,0.29,0.09,0.51,0.27,0.68s0.49,0.31,0.93,0.44L87.84,382.35z"/>
		<path d="M91.5,383.21c0-1.48,0.26-2.59,0.79-3.33c0.53-0.74,1.27-1.12,2.23-1.12c0.95,0,1.69,0.37,2.23,1.12
			c0.53,0.74,0.8,1.85,0.8,3.33c0,1.47-0.27,2.58-0.8,3.31c-0.53,0.74-1.27,1.11-2.23,1.11c-0.96,0-1.7-0.37-2.23-1.11
			C91.77,385.78,91.5,384.68,91.5,383.21z M96.18,381.84h-0.52l-0.65,1.6l-1.56,2.02l-0.58-1.04h0.49l0.62-1.46l1.61-2.09
			L96.18,381.84z M95.89,383.21c0-0.97-0.12-1.7-0.35-2.17s-0.57-0.72-1.02-0.72c-0.46,0-0.81,0.24-1.04,0.72s-0.35,1.2-0.35,2.17
			c0,0.97,0.12,1.69,0.35,2.16c0.23,0.47,0.58,0.71,1.04,0.71c0.45,0,0.79-0.24,1.02-0.71C95.78,384.89,95.89,384.18,95.89,383.21z"
			/>
		<path d="M98.74,387.45v-1.58h6.07l-0.25,1.58H98.74z M98.77,382.73v-1.53h2.8v1.53H98.77z M100.59,386.91v-6.94
			c0-0.5,0.15-0.89,0.44-1.16s0.69-0.41,1.18-0.41h2.81v1.47h-2.47c-0.12,0-0.18,0.06-0.18,0.19v6.86H100.59z M101.57,382.73v-1.3
			l3.22-0.25v1.55H101.57z"/>
		<path d="M105.84,384.32c0-0.66,0.13-1.24,0.38-1.73c0.25-0.49,0.61-0.87,1.08-1.15c0.46-0.27,1.02-0.41,1.66-0.41
			c0.63,0,1.18,0.14,1.63,0.41s0.81,0.66,1.06,1.15c0.25,0.49,0.38,1.06,0.38,1.73c0,0.66-0.12,1.23-0.38,1.72
			c-0.25,0.49-0.6,0.87-1.06,1.15s-1,0.41-1.63,0.41c-0.64,0-1.19-0.14-1.66-0.41c-0.47-0.27-0.82-0.65-1.08-1.15
			C105.96,385.55,105.84,384.98,105.84,384.32z M110.23,384.32c0-0.56-0.11-1-0.33-1.32c-0.22-0.32-0.54-0.49-0.96-0.49
			c-0.44,0-0.77,0.16-0.99,0.49c-0.22,0.32-0.34,0.76-0.34,1.32c0,0.56,0.11,1,0.34,1.32c0.23,0.32,0.55,0.49,0.99,0.49
			c0.42,0,0.73-0.16,0.95-0.49C110.12,385.32,110.23,384.88,110.23,384.32z"/>
		<path d="M113.28,387.45v-1.58h5.54l-0.25,1.58H113.28z M114.75,386.85v-4.08h-1.44v-1.58h2.71l0.25,1.58h0.2
			c0.12-0.53,0.34-0.94,0.66-1.24c0.32-0.29,0.75-0.44,1.29-0.44h0.69v1.89h-1.21c-0.45,0-0.79,0.12-1.03,0.35
			c-0.23,0.24-0.35,0.6-0.35,1.09v2.43H114.75z"/>
		<path d="M120.39,382.73v-1.53h2.54v1.53H120.39z M123.78,387.45c-0.56,0-1-0.14-1.3-0.41c-0.3-0.28-0.45-0.71-0.45-1.3v-6.32
			l1.78-0.44v6.68c0,0.14,0.07,0.21,0.2,0.21h1.76v1.58H123.78z M122.93,382.73v-1.53h2.84v1.53H122.93z"/>
		<path d="M127.47,390v-1.55h1.29c0.32,0,0.53-0.13,0.63-0.38l0.28-0.71l-2.47-6.16h1.97l1.37,4.35l-0.2-0.26h0.46l-0.22,0.26
			l1.25-4.35h1.81l-2.63,7.25c-0.14,0.4-0.31,0.71-0.5,0.94c-0.19,0.23-0.42,0.39-0.7,0.48c-0.28,0.09-0.62,0.13-1.03,0.13H127.47z"
			/>
		<path d="M144.24,387.45l-2.56-6.26h1.96l1.33,4.19l-0.38-0.22h0.85l-0.39,0.22l1.21-4.19h1.9l-2.52,6.26H144.24z"/>
		<path d="M149.23,387.45v-1.6h2.23v-4.03h-1.83v-1.42c0.32-0.02,0.6-0.06,0.84-0.12c0.24-0.06,0.46-0.14,0.65-0.25
			c0.19-0.11,0.36-0.26,0.5-0.44c0.15-0.18,0.28-0.4,0.4-0.66h1.26v6.92h2l-0.27,1.6H149.23z"/>
		<path d="M158.14,387.45v-2.31h2.37v2.31H158.14z"/>
		<path d="M163.5,383.21c0-1.48,0.26-2.59,0.79-3.33c0.53-0.74,1.27-1.12,2.23-1.12c0.95,0,1.69,0.37,2.23,1.12
			c0.53,0.74,0.8,1.85,0.8,3.33c0,1.47-0.27,2.58-0.8,3.31c-0.53,0.74-1.27,1.11-2.23,1.11c-0.96,0-1.7-0.37-2.23-1.11
			C163.77,385.78,163.5,384.68,163.5,383.21z M168.17,381.84h-0.52l-0.65,1.6l-1.56,2.02l-0.58-1.04h0.49l0.62-1.46l1.61-2.09
			L168.17,381.84z M167.89,383.21c0-0.97-0.12-1.7-0.35-2.17s-0.57-0.72-1.02-0.72c-0.46,0-0.81,0.24-1.04,0.72s-0.35,1.2-0.35,2.17
			c0,0.97,0.12,1.69,0.35,2.16c0.23,0.47,0.58,0.71,1.04,0.71c0.45,0,0.79-0.24,1.02-0.71
			C167.78,384.89,167.89,384.18,167.89,383.21z"/>
		<path d="M89.67,401.86l-0.72-2.09l-0.11-0.31l-1.53-4.43l0.24,0.19h-0.49l0.26-0.19l-1.54,4.43l-0.1,0.28l-0.74,2.12h-1.16
			l3.16-8.57h0.77l3.14,8.57H89.67z M84.97,399.97l0.33-0.92h2.02v0.92H84.97z M87.31,399.97v-0.92h1.97l0.34,0.92H87.31z"/>
		<path d="M91.8,401.86v-0.94h5.24l-0.16,0.94H91.8z M93.3,401.26v-4.6h-1.37v-0.94h2.15l0.15,1.47h0.12
			c0.16-0.46,0.43-0.84,0.81-1.12c0.38-0.28,0.93-0.43,1.67-0.43h0.77v1.09h-1.43c-0.55,0-0.98,0.16-1.31,0.49
			c-0.32,0.33-0.49,0.81-0.49,1.45v2.58H93.3z"/>
		<path d="M99,401.86v-0.94h5.24l-0.16,0.94H99z M100.5,401.26v-4.6h-1.37v-0.94h2.15l0.15,1.47h0.12c0.16-0.46,0.43-0.84,0.81-1.12
			c0.38-0.28,0.93-0.43,1.67-0.43h0.77v1.09h-1.43c-0.55,0-0.98,0.16-1.31,0.49c-0.32,0.33-0.49,0.81-0.49,1.45v2.58H100.5z"/>
		<path d="M106.03,398.78c0-0.65,0.12-1.21,0.35-1.69c0.24-0.48,0.57-0.85,1-1.11s0.94-0.4,1.54-0.4c0.6,0,1.11,0.13,1.54,0.4
			s0.77,0.64,1,1.12s0.35,1.04,0.35,1.69s-0.12,1.21-0.35,1.69c-0.23,0.48-0.57,0.85-1,1.12c-0.43,0.26-0.95,0.4-1.54,0.4
			c-0.59,0-1.1-0.13-1.54-0.4c-0.43-0.26-0.77-0.64-1-1.12C106.15,399.99,106.03,399.43,106.03,398.78z M110.75,398.78
			c0-0.7-0.15-1.26-0.46-1.68s-0.76-0.62-1.36-0.62c-0.59,0-1.04,0.21-1.36,0.62s-0.47,0.97-0.47,1.68c0,0.7,0.16,1.26,0.47,1.68
			c0.31,0.42,0.76,0.62,1.36,0.62c0.59,0,1.04-0.21,1.36-0.62C110.59,400.05,110.75,399.49,110.75,398.78z"/>
		<path d="M113.98,401.86l-1.39-6.13h1.07l0.83,4.21l-0.19-0.14h0.35l-0.14,0.14l1.54-4.21h0.14l1.54,4.21l-0.14-0.14h0.35
			l-0.18,0.14l0.82-4.21h1.03l-1.37,6.13h-0.74l-1.37-3.98l0.17,0.12h-0.37l0.16-0.12l-1.38,3.98H113.98z"/>
		<path d="M120.15,394.35v-1.01h6.36v1.01h-2.62v7.51h-1.12v-7.51H120.15z"/>
		<path d="M127.41,404.41v-0.95h1.37c0.43,0,0.71-0.17,0.85-0.51l0.46-1.1l-2.59-6.13h1.21l1.9,4.98l-0.14-0.14h0.32l-0.14,0.14
			l1.75-4.98h1.12l-2.89,7.44c-0.12,0.31-0.26,0.56-0.41,0.74c-0.16,0.18-0.35,0.31-0.57,0.39c-0.23,0.08-0.51,0.12-0.85,0.12
			H127.41z"/>
		<path d="M135.12,404.41v-8.69H136l0.11,1.25h0.11c0.16-0.44,0.41-0.78,0.75-1.01s0.74-0.35,1.21-0.35c0.5,0,0.93,0.12,1.29,0.38
			c0.37,0.26,0.65,0.62,0.85,1.1s0.3,1.04,0.3,1.71c0,0.66-0.1,1.23-0.3,1.7c-0.2,0.47-0.48,0.83-0.84,1.09
			c-0.36,0.25-0.79,0.38-1.29,0.38c-0.46,0-0.84-0.11-1.16-0.34c-0.32-0.22-0.56-0.54-0.73-0.94h-0.11v3.72H135.12z M137.86,401.06
			c0.53,0,0.95-0.2,1.24-0.6c0.29-0.4,0.44-0.96,0.44-1.68c0-0.73-0.15-1.29-0.44-1.69c-0.3-0.4-0.71-0.6-1.25-0.6
			c-0.52,0-0.93,0.2-1.22,0.61c-0.3,0.41-0.44,0.96-0.44,1.68c0,0.71,0.15,1.27,0.45,1.67
			C136.93,400.86,137.34,401.06,137.86,401.06z"/>
		<path d="M145.13,402.01c-0.67,0-1.23-0.13-1.69-0.4s-0.8-0.64-1.04-1.12c-0.23-0.48-0.35-1.04-0.35-1.68
			c0-0.64,0.12-1.21,0.35-1.7c0.23-0.49,0.57-0.86,1.01-1.14c0.44-0.27,0.97-0.41,1.58-0.41c0.63,0,1.16,0.14,1.6,0.43
			s0.75,0.69,0.96,1.23c0.21,0.53,0.28,1.17,0.23,1.92h-4.96v-0.86h4.15l-0.22,0.23c0.01-0.68-0.15-1.19-0.46-1.54
			c-0.32-0.34-0.75-0.52-1.28-0.52c-0.58,0-1.04,0.2-1.38,0.6s-0.5,0.95-0.5,1.65v0.22c0,0.68,0.17,1.21,0.5,1.6
			c0.34,0.39,0.84,0.59,1.52,0.59c0.36,0,0.68-0.06,0.95-0.18s0.52-0.29,0.74-0.5l0.66,0.68c-0.3,0.29-0.65,0.51-1.04,0.66
			C146.07,401.94,145.63,402.01,145.13,402.01z"/>
		<path d="M157.23,401.86h-1.31l2.95-4.6l0.81,1.14h-0.36L157.23,401.86z M157.42,393.34l2.14,3.55l0.3,0.35l2.93,4.62h-1.3
			l-2.3-3.91l-0.28-0.28l-2.77-4.34H157.42z M161.36,393.34h1.25l-2.83,4.46l-0.63-1.24h0.32L161.36,393.34z"/>
		<path d="M84.56,416.25v-8.52h1.11v8.52H84.56z M85.61,413.68l-0.08-1.76h0.32l3.33-4.19h1.45l-3.21,3.86l-0.36,0.39L85.61,413.68z
			 M89.34,416.25l-2.3-4h-0.36l0.86-1.19l3.16,5.2H89.34z"/>
		<path d="M91.76,415.31h5.72l-0.16,0.94h-5.56V415.31z M95.08,415.83h-1.06v-4.78h-2.14v-0.94h3.2V415.83z M93.66,408.19v-1.55
			h1.64v1.55H93.66z"/>
		<path d="M99.42,411.71c0-0.52,0.21-0.95,0.62-1.28c0.41-0.33,0.97-0.49,1.66-0.49c0.52,0,0.97,0.08,1.34,0.25
			c0.37,0.16,0.68,0.4,0.94,0.7l-0.78,0.63c-0.18-0.23-0.4-0.4-0.65-0.52s-0.54-0.18-0.85-0.18c-0.4,0-0.7,0.08-0.92,0.25
			s-0.32,0.37-0.32,0.61c0,0.23,0.08,0.41,0.24,0.53s0.47,0.24,0.92,0.36l0.65,0.16c0.7,0.17,1.2,0.4,1.48,0.68
			c0.29,0.28,0.43,0.65,0.43,1.11c0,0.59-0.23,1.06-0.68,1.4s-1.08,0.51-1.88,0.51c-0.59,0-1.1-0.1-1.54-0.3
			c-0.43-0.2-0.78-0.52-1.04-0.94l0.82-0.61c0.21,0.33,0.46,0.58,0.75,0.74s0.64,0.25,1.04,0.25c0.46,0,0.83-0.09,1.09-0.26
			s0.4-0.41,0.4-0.71c0-0.25-0.09-0.44-0.26-0.58c-0.18-0.14-0.51-0.26-1.01-0.38l-0.65-0.16c-0.63-0.15-1.08-0.37-1.37-0.64
			C99.56,412.55,99.42,412.18,99.42,411.71z"/>
		<path d="M109.13,416.41c-0.67,0-1.23-0.13-1.69-0.4s-0.8-0.64-1.04-1.12c-0.23-0.48-0.35-1.04-0.35-1.68
			c0-0.64,0.12-1.21,0.35-1.7c0.23-0.49,0.57-0.87,1.01-1.14c0.44-0.27,0.97-0.41,1.58-0.41c0.63,0,1.16,0.14,1.6,0.43
			c0.43,0.29,0.75,0.7,0.96,1.23s0.28,1.17,0.23,1.92h-4.96v-0.86h4.15l-0.22,0.23c0.01-0.68-0.15-1.19-0.46-1.54
			s-0.75-0.52-1.28-0.52c-0.58,0-1.04,0.2-1.38,0.6s-0.5,0.95-0.5,1.65v0.22c0,0.68,0.17,1.21,0.5,1.6
			c0.34,0.39,0.84,0.59,1.52,0.59c0.36,0,0.68-0.06,0.95-0.18s0.52-0.29,0.74-0.5l0.66,0.68c-0.3,0.29-0.65,0.51-1.04,0.66
			C110.07,416.34,109.63,416.41,109.13,416.41z"/>
		<path d="M113.4,416.25v-0.94h5.24l-0.16,0.94H113.4z M114.9,415.66v-4.6h-1.37v-0.94h2.15l0.15,1.47h0.12
			c0.16-0.46,0.43-0.84,0.81-1.12c0.38-0.28,0.93-0.43,1.67-0.43h0.77v1.09h-1.43c-0.55,0-0.98,0.16-1.31,0.49
			c-0.32,0.33-0.49,0.81-0.49,1.45v2.58H114.9z"/>
		<path d="M127.76,407.74h2.5c1.03,0,1.82,0.26,2.39,0.77c0.57,0.51,0.85,1.28,0.85,2.32v2.36c0,1.04-0.29,1.81-0.87,2.32
			c-0.58,0.51-1.38,0.76-2.41,0.76h-2.46V407.74z M130.18,415.24c0.73,0,1.28-0.17,1.64-0.52c0.37-0.35,0.55-0.88,0.55-1.59v-2.26
			c0-0.71-0.18-1.24-0.53-1.59c-0.36-0.35-0.89-0.52-1.61-0.52h-1.36v6.49H130.18z"/>
		<path d="M137.93,416.41c-0.67,0-1.23-0.13-1.69-0.4s-0.8-0.64-1.04-1.12c-0.23-0.48-0.35-1.04-0.35-1.68
			c0-0.64,0.12-1.21,0.35-1.7c0.23-0.49,0.57-0.87,1.01-1.14c0.44-0.27,0.97-0.41,1.58-0.41c0.63,0,1.16,0.14,1.6,0.43
			c0.43,0.29,0.75,0.7,0.96,1.23s0.28,1.17,0.23,1.92h-4.96v-0.86h4.15l-0.22,0.23c0.01-0.68-0.15-1.19-0.46-1.54
			s-0.75-0.52-1.28-0.52c-0.58,0-1.04,0.2-1.38,0.6s-0.5,0.95-0.5,1.65v0.22c0,0.68,0.17,1.21,0.5,1.6
			c0.34,0.39,0.84,0.59,1.52,0.59c0.36,0,0.68-0.06,0.95-0.18s0.52-0.29,0.74-0.5l0.66,0.68c-0.3,0.29-0.65,0.51-1.04,0.66
			C138.87,416.34,138.43,416.41,137.93,416.41z"/>
		<path d="M142.62,411.71c0-0.52,0.21-0.95,0.62-1.28c0.41-0.33,0.97-0.49,1.66-0.49c0.52,0,0.97,0.08,1.34,0.25
			c0.37,0.16,0.68,0.4,0.94,0.7l-0.78,0.63c-0.18-0.23-0.4-0.4-0.65-0.52s-0.54-0.18-0.85-0.18c-0.4,0-0.7,0.08-0.92,0.25
			s-0.32,0.37-0.32,0.61c0,0.23,0.08,0.41,0.24,0.53s0.47,0.24,0.92,0.36l0.65,0.16c0.7,0.17,1.2,0.4,1.48,0.68
			c0.29,0.28,0.43,0.65,0.43,1.11c0,0.59-0.23,1.06-0.68,1.4s-1.08,0.51-1.88,0.51c-0.59,0-1.1-0.1-1.54-0.3
			c-0.43-0.2-0.78-0.52-1.04-0.94l0.82-0.61c0.21,0.33,0.46,0.58,0.75,0.74s0.64,0.25,1.04,0.25c0.46,0,0.83-0.09,1.09-0.26
			s0.4-0.41,0.4-0.71c0-0.25-0.09-0.44-0.26-0.58c-0.18-0.14-0.51-0.26-1.01-0.38l-0.65-0.16c-0.63-0.15-1.08-0.37-1.37-0.64
			C142.76,412.55,142.62,412.18,142.62,411.71z"/>
		<path d="M149.36,415.31h5.72l-0.16,0.94h-5.56V415.31z M152.68,415.83h-1.06v-4.78h-2.14v-0.94h3.2V415.83z M151.25,408.19v-1.55
			h1.64v1.55H151.25z"/>
		<path d="M158.14,419.04c-0.7,0-1.23-0.14-1.59-0.42c-0.36-0.28-0.54-0.67-0.54-1.16c0-0.36,0.09-0.66,0.29-0.9
			c0.19-0.25,0.46-0.41,0.82-0.5v-0.11c-0.47-0.19-0.7-0.51-0.71-0.96c0-0.28,0.07-0.52,0.23-0.72c0.16-0.2,0.4-0.34,0.71-0.42
			v-0.12c-0.3-0.15-0.53-0.37-0.71-0.66c-0.17-0.29-0.26-0.63-0.26-1.02c0-0.4,0.09-0.75,0.27-1.06c0.18-0.31,0.45-0.55,0.82-0.73
			c0.36-0.18,0.81-0.27,1.35-0.27c0.52,0,0.95,0.08,1.29,0.24s0.62,0.39,0.83,0.68h0.1v-0.12c0-0.31,0.08-0.54,0.23-0.69
			c0.15-0.15,0.44-0.22,0.86-0.22h0.53v1.15h-0.97c-0.13,0-0.22,0.02-0.27,0.08c-0.05,0.05-0.08,0.13-0.08,0.25v0.68
			c0,0.64-0.21,1.13-0.65,1.49c-0.43,0.36-1.02,0.54-1.77,0.54h-0.67c-0.27,0-0.47,0.06-0.61,0.17c-0.14,0.11-0.21,0.28-0.21,0.49
			c0,0.21,0.07,0.37,0.21,0.49c0.14,0.12,0.34,0.17,0.61,0.17h2.24c0.6,0,1.06,0.16,1.39,0.47c0.33,0.31,0.49,0.76,0.49,1.34
			c0,0.38-0.09,0.71-0.27,0.99c-0.18,0.27-0.42,0.48-0.73,0.63c-0.31,0.14-0.67,0.22-1.09,0.22H158.14z M158.39,418.2h1.63
			c0.41,0,0.73-0.08,0.94-0.25c0.22-0.16,0.33-0.4,0.33-0.72c0-0.25-0.08-0.45-0.25-0.62c-0.17-0.16-0.43-0.25-0.77-0.25h-2.15
			c-0.34,0-0.6,0.08-0.78,0.25s-0.26,0.37-0.26,0.62c0,0.32,0.11,0.56,0.32,0.72S157.94,418.2,158.39,418.2z M158.85,413.34
			c0.44,0,0.79-0.11,1.05-0.34c0.26-0.23,0.39-0.54,0.39-0.94c0-0.39-0.13-0.7-0.39-0.93c-0.26-0.23-0.61-0.34-1.05-0.34
			c-0.43,0-0.77,0.11-1.01,0.34s-0.37,0.54-0.37,0.93c0,0.39,0.12,0.7,0.38,0.94C158.09,413.23,158.43,413.34,158.85,413.34z"/>
		<path d="M163.91,416.25v-6.13h0.89l0.04,1.04h0.11c0.16-0.35,0.41-0.63,0.73-0.84s0.72-0.32,1.21-0.32c0.7,0,1.25,0.21,1.65,0.62
			s0.6,1.02,0.6,1.81v3.82h-1.06v-3.77c0-0.54-0.14-0.94-0.41-1.21c-0.27-0.27-0.65-0.4-1.15-0.4c-0.49,0-0.88,0.14-1.15,0.42
			c-0.27,0.28-0.41,0.68-0.41,1.19v3.77H163.91z"/>
		<path d="M171.41,411.71c0-0.52,0.21-0.95,0.62-1.28c0.41-0.33,0.97-0.49,1.66-0.49c0.52,0,0.97,0.08,1.34,0.25
			c0.37,0.16,0.68,0.4,0.94,0.7l-0.78,0.63c-0.18-0.23-0.4-0.4-0.65-0.52s-0.54-0.18-0.85-0.18c-0.4,0-0.7,0.08-0.92,0.25
			s-0.32,0.37-0.32,0.61c0,0.23,0.08,0.41,0.24,0.53s0.47,0.24,0.92,0.36l0.65,0.16c0.7,0.17,1.2,0.4,1.48,0.68
			c0.29,0.28,0.43,0.65,0.43,1.11c0,0.59-0.23,1.06-0.68,1.4s-1.08,0.51-1.88,0.51c-0.59,0-1.1-0.1-1.54-0.3
			c-0.43-0.2-0.78-0.52-1.04-0.94l0.82-0.61c0.21,0.33,0.46,0.58,0.75,0.74s0.64,0.25,1.04,0.25c0.46,0,0.83-0.09,1.09-0.26
			s0.4-0.41,0.4-0.71c0-0.25-0.09-0.44-0.26-0.58c-0.18-0.14-0.51-0.26-1.01-0.38l-0.65-0.16c-0.63-0.15-1.08-0.37-1.37-0.64
			C171.56,412.55,171.41,412.18,171.41,411.71z"/>
	</g>
</g>
<g id="screenprint">
	<g>
		<path d="M808.16,184.91h0.13c0.4-1.24,1.26-1.85,2.4-1.85c1.67,0,2.82,1.31,2.82,3.37c0,2.13-1.13,3.38-2.67,3.38
			c-1.11,0-1.9-0.73-2.32-2.02h-0.13c-0.43,1.64-1.37,2.4-2.76,2.4c-1.92,0-3.2-1.53-3.2-3.81c0-2.41,1.26-3.84,3.06-3.84
			C806.77,182.54,807.71,183.28,808.16,184.91z M807.72,186.3l0.16-0.67c-0.5-1.24-1.17-1.79-2.15-1.79c-1.33,0-2.09,1.04-2.09,2.55
			c0,1.49,0.77,2.44,1.99,2.44C806.69,188.83,807.27,188.22,807.72,186.3z M810.57,188.57c1.12,0,1.81-0.79,1.81-2.14
			c0-1.3-0.7-2.11-1.66-2.11c-1,0-1.52,0.61-1.87,2.18l-0.13,0.54C809.12,188.05,809.74,188.57,810.57,188.57z"/>
		<path d="M813.5,196.56c0,2.38-1.92,3.77-5.55,3.77s-5.52-1.39-5.52-3.77c0-2.4,1.89-3.77,5.52-3.77S813.5,194.17,813.5,196.56z
			 M810.2,198.7v-0.17l-2.23-1.24l-3.13-2.54c-0.76,0.4-1.15,1-1.15,1.81c0,1.54,1.47,2.38,4.27,2.38
			C808.83,198.94,809.59,198.86,810.2,198.7z M805.93,194.38v0.17l2.04,1.18l3.2,2.6c0.72-0.4,1.09-1,1.09-1.76
			c0-1.57-1.5-2.38-4.3-2.38C807.17,194.19,806.5,194.25,805.93,194.38z"/>
		<path d="M804.78,209.02h-2.13v-1.33h2.13v-5.13h0.88l7.63,5.44v1.02h-7.35v1.38h-1.16V209.02z M805.93,204.25l0.01,3.45l5.03,0.1
			v-0.1l-4.89-3.46H805.93z"/>
		<path d="M813.5,216.62c0,2.38-1.92,3.77-5.55,3.77s-5.52-1.39-5.52-3.77c0-2.4,1.89-3.77,5.52-3.77S813.5,214.23,813.5,216.62z
			 M810.2,218.76v-0.17l-2.23-1.24l-3.13-2.54c-0.76,0.4-1.15,1-1.15,1.81c0,1.54,1.47,2.38,4.27,2.38
			C808.83,219,809.59,218.92,810.2,218.76z M805.93,214.44v0.17l2.04,1.18l3.2,2.6c0.72-0.4,1.09-1,1.09-1.76
			c0-1.57-1.5-2.38-4.3-2.38C807.17,214.25,806.5,214.31,805.93,214.44z"/>
	</g>
</g>
</svg>
