<?xml version="1.0" standalone="no"?>
 <!DOCTYPE svg PUBLIC "-//W3C//DTD SVG 1.1//EN" 
 "http://www.w3.org/Graphics/SVG/1.1/DTD/svg11.dtd"> 
<svg
  xmlns:svg="http://www.w3.org/2000/svg"
  xmlns="http://www.w3.org/2000/svg"
  xmlns:xlink="http://www.w3.org/1999/xlink"
  version="1.1"
  width="278.3078mm" height="199.2122mm" viewBox="0.0000 0.0000 278.3078 199.2122">
<title>SVG Image created as HS_KS-SLD_MX-Edge_Cuts.svg date 2023/11/05 22:51:30 </title>
  <desc>Image generated by PCBNEW </desc>
<g style="fill:#000000; fill-opacity:1.0000;stroke:#000000; stroke-opacity:1.0000;
stroke-linecap:round; stroke-linejoin:round;"
 transform="translate(0 0) scale(1 1)">
</g>
<g style="fill:#000000; fill-opacity:0.0; 
stroke:#000000; stroke-width:0.0000; stroke-opacity:1; 
stroke-linecap:round; stroke-linejoin:round;">
</g>
<g style="fill:#D0D2CD; fill-opacity:0.0; 
stroke:#D0D2CD; stroke-width:0.0000; stroke-opacity:1; 
stroke-linecap:round; stroke-linejoin:round;">
</g>
<g style="fill:#D0D2CD; fill-opacity:0.0; 
stroke:#D0D2CD; stroke-width:0.1000; stroke-opacity:1; 
stroke-linecap:round; stroke-linejoin:round;">
<path d="M61.6187 80.7969 A2.7781 2.7781 0.0 0 0 56.0625 80.7969" />
<path d="M2.4844 35.9500
L2.4844 6.9781
" />
<path d="M253.7062 83.1781 A2.3813 2.3813 0.0 0 0 256.0875 80.7969" />
<path d="M5.6594 3.8031
L72.7313 3.8031
" />
<path d="M277.1219 6.9781
L277.1219 80.0031
" />
<path d="M172.7437 83.1781 A2.3813 2.3813 0.0 0 0 175.1250 80.7969" />
<path d="M53.6812 83.1781 A2.3813 2.3813 0.0 0 0 56.0625 80.7969" />
<path d="M4.8656 43.8875 A2.7781 2.7781 0.0 0 0 4.8656 38.3313" />
<path d="M221.1625 3.8031
L273.9469 3.8031
" />
<path d="M221.1625 3.8031 A2.3813 2.3813 0.0 0 0 218.7813 6.1844" />
<path d="M5.6594 3.8031 A3.1750 3.1750 0.0 0 0 2.4844 6.9781" />
<path d="M273.9469 83.1782 A3.1750 3.1750 0.0 0 0 277.1219 80.0031" />
<path d="M253.7062 83.1781
L183.0625 83.1781
" />
<path d="M2.4844 80.0031 A3.1750 3.1750 0.0 0 0 5.6594 83.1781" />
<path d="M83.0500 3.8031
L210.8438 3.8031
" />
<path d="M53.6812 83.1781
L5.6594 83.1781
" />
<path d="M261.6437 80.7969 A2.7781 2.7781 0.0 0 0 256.0875 80.7969" />
<path d="M75.1124 6.1844 A2.3812 2.3812 0.0 0 0 72.7312 3.8031" />
<path d="M180.6813 80.7969 A2.3813 2.3813 0.0 0 0 183.0625 83.1781" />
<path d="M261.6438 80.7969 A2.3813 2.3813 0.0 0 0 264.0250 83.1781" />
<path d="M2.4844 80.0031
L2.4844 46.2687
" />
<path d="M2.4843 35.9500 A2.3813 2.3813 0.0 0 0 4.8656 38.3313" />
<path d="M64.0000 83.1781
L172.7438 83.1781
" />
<path d="M213.2249 6.1844 A2.3812 2.3812 0.0 0 0 210.8437 3.8031" />
<path d="M180.6812 80.7969 A2.7781 2.7781 0.0 0 0 175.1250 80.7969" />
<path d="M75.1125 6.1844 A2.7781 2.7781 0.0 0 0 80.6688 6.1844" />
<path d="M4.8656 43.8875 A2.3813 2.3813 0.0 0 0 2.4844 46.2687" />
<path d="M61.6188 80.7969 A2.3813 2.3813 0.0 0 0 64.0000 83.1781" />
<path d="M83.0500 3.8031 A2.3813 2.3813 0.0 0 0 80.6688 6.1844" />
<path d="M264.0250 83.1781
L273.9469 83.1781
" />
<path d="M213.2250 6.1844 A2.7781 2.7781 0.0 0 0 218.7812 6.1844" />
<path d="M277.1218 6.9781 A3.1750 3.1750 0.0 0 0 273.9469 3.8031" />
<path d="M274.6497 54.7156
L273.2440 54.7156
" />
<path d="M272.4469 53.8101
L272.4469 52.2212
" />
<path d="M275.4469 52.2212
L275.4469 53.8101
" />
<path d="M273.2440 51.3156
L274.6497 51.3156
" />
<path d="M273.2440 54.7156 A0.5000 0.5000 0.0 0 0 273.0272 54.7651" />
<path d="M272.3786 54.0623 A0.5000 0.5000 0.0 0 0 273.0272 54.7651" />
<path d="M274.8666 54.7651 A0.5000 0.5000 0.0 0 0 274.6497 54.7156" />
<path d="M274.8666 54.7651 A0.5000 0.5000 0.0 0 0 275.5152 54.0623" />
<path d="M275.4469 53.8101 A0.5000 0.5000 0.0 0 0 275.5152 54.0623" />
<path d="M272.3786 54.0623 A0.5000 0.5000 0.0 0 0 272.4469 53.8101" />
<path d="M275.5152 51.9689 A0.5000 0.5000 0.0 0 0 275.4469 52.2212" />
<path d="M272.4469 52.2212 A0.5000 0.5000 0.0 0 0 272.3786 51.9689" />
<path d="M273.0272 51.2661 A0.5000 0.5000 0.0 0 0 272.3786 51.9689" />
<path d="M273.0272 51.2661 A0.5004 0.5004 0.0 0 0 273.2440 51.3156" />
<path d="M275.5152 51.9689 A0.5000 0.5000 0.0 0 0 274.8666 51.2661" />
<path d="M274.6497 51.3156 A0.5005 0.5005 0.0 0 0 274.8666 51.2661" />
<g >
</g>
<g >
</g>
<g >
</g>
<g >
</g>
<g >
</g>
<g >
</g>
<g >
</g>
<g >
</g>
<g >
</g>
<g >
</g>
<g >
</g>
<g >
</g>
<g >
</g>
<g >
</g>
<g >
</g>
<g >
</g>
<g >
</g>
<g >
</g>
<g >
</g>
<g >
</g>
<g >
</g>
<g >
</g>
<g >
</g>
<g >
</g>
<g >
</g>
<g >
</g>
<g >
</g>
<g >
</g>
<g >
</g>
<g >
</g>
<g >
</g>
<g >
</g>
<g >
</g>
<g >
</g>
<g >
</g>
<g >
</g>
<g >
</g>
<g >
</g>
<g >
</g>
<g >
</g>
<g >
</g>
<g >
</g>
<g >
</g>
<g >
</g>
<g >
</g>
<g >
</g>
<g >
</g>
<g >
</g>
<g >
</g>
<g >
</g>
<g >
</g>
<g >
</g>
<g >
</g>
<g >
</g>
<g >
</g>
<g >
</g>
<g >
</g>
<g >
</g>
<g >
</g>
<g >
</g>
<g >
</g>
<g >
</g>
<g >
</g>
<g >
</g>
<g >
</g>
<g >
</g>
<g >
</g>
<g >
</g>
<g >
</g>
<g >
</g>
<g >
</g>
<g >
</g>
<g >
</g>
<g >
</g>
<g >
</g>
<g >
</g>
<g >
</g>
<g >
</g>
<g >
</g>
<g >
</g>
<g >
</g>
<g >
</g>
<g >
</g>
<g >
</g>
<g >
</g>
<g >
</g>
<g >
</g>
<g >
</g>
<g >
</g>
<g >
</g>
<g >
</g>
<g >
</g>
<g >
</g>
<g >
</g>
<g >
</g>
<g >
</g>
<g >
</g>
<g >
</g>
<g >
</g>
<g >
</g>
<g >
</g>
<g >
</g>
<g >
</g>
<g >
</g>
<g >
</g>
<g >
</g>
<g >
</g>
<g >
</g>
<g >
</g>
<g >
</g>
<g >
</g>
<g >
</g>
<g >
</g>
<g >
</g>
<g >
</g>
<g >
</g>
<g >
</g>
<g >
</g>
<g >
</g>
<g >
</g>
<g >
</g>
<g >
</g>
<g >
</g>
<g >
</g>
<g >
</g>
<g >
</g>
<g >
</g>
<g >
</g>
<g >
</g>
<g >
</g>
<g >
</g>
<g >
</g>
<g >
</g>
<g >
</g>
<g >
</g>
<g >
</g>
<g >
</g>
<g >
</g>
<g >
</g>
<g >
</g>
<g >
</g>
<g >
</g>
<g >
</g>
<g >
</g>
<g >
</g>
<g >
</g>
<g >
</g>
<g >
</g>
<g >
</g>
<g >
</g>
</g> 
</svg>
