<?xml version="1.0" standalone="no"?>
 <!DOCTYPE svg PUBLIC "-//W3C//DTD SVG 1.1//EN" 
 "http://www.w3.org/Graphics/SVG/1.1/DTD/svg11.dtd"> 
<svg
  xmlns:svg="http://www.w3.org/2000/svg"
  xmlns="http://www.w3.org/2000/svg"
  xmlns:xlink="http://www.w3.org/1999/xlink"
  version="1.1"
  width="278.3078mm" height="199.2122mm" viewBox="0.0000 0.0000 278.3078 199.2122">
<title>SVG Image created as HS_KS-SLD_MX-B_Courtyard.svg date 2023/11/05 22:51:30 </title>
  <desc>Image generated by PCBNEW </desc>
<g style="fill:#000000; fill-opacity:1.0000;stroke:#000000; stroke-opacity:1.0000;
stroke-linecap:round; stroke-linejoin:round;"
 transform="translate(0 0) scale(1 1)">
</g>
<g style="fill:#000000; fill-opacity:0.0; 
stroke:#000000; stroke-width:0.0000; stroke-opacity:1; 
stroke-linecap:round; stroke-linejoin:round;">
</g>
<g style="fill:#26E9FF; fill-opacity:0.0; 
stroke:#26E9FF; stroke-width:0.0000; stroke-opacity:1; 
stroke-linecap:round; stroke-linejoin:round;">
</g>
<g style="fill:#26E9FF; fill-opacity:0.0; 
stroke:#26E9FF; stroke-width:0.0500; stroke-opacity:1; 
stroke-linecap:round; stroke-linejoin:round;">
<path d="M233.0033 38.5446
L233.0033 36.0946
" />
<path d="M233.0033 36.0946
L230.4033 36.0946
" />
<path d="M230.4033 39.5421
L224.0533 39.5421
" />
<path d="M230.4033 38.5446
L233.0033 38.5446
" />
<path d="M230.4033 38.5446
L230.4033 39.5421
" />
<path d="M230.4033 36.0946
L230.4033 35.0971
" />
<path d="M230.4033 35.0971
L224.0533 35.0971
" />
<path d="M224.0533 39.5421
L222.6133 38.5221
" />
<path d="M224.0533 35.0971
L222.6133 34.0771
" />
<path d="M222.6133 38.5221
L218.8033 38.5221
" />
<path d="M222.6133 34.0771
L218.8033 34.0771
" />
<path d="M218.8033 38.5221
L218.8033 37.5246
" />
<path d="M218.8033 35.0746
L216.2533 35.0746
" />
<path d="M218.8033 34.0771
L218.8033 35.0746
" />
<path d="M216.2533 37.5246
L218.8033 37.5246
" />
<path d="M216.2533 35.0746
L216.2533 37.5246
" />
<path d="M79.9404 43.6742
L79.9404 46.1242
" />
<path d="M79.9404 46.1242
L82.5404 46.1242
" />
<path d="M82.5404 42.6767
L88.8904 42.6767
" />
<path d="M82.5404 43.6742
L79.9404 43.6742
" />
<path d="M82.5404 43.6742
L82.5404 42.6767
" />
<path d="M82.5404 46.1242
L82.5404 47.1217
" />
<path d="M82.5404 47.1217
L88.8904 47.1217
" />
<path d="M88.8904 42.6767
L90.3304 43.6967
" />
<path d="M88.8904 47.1217
L90.3304 48.1417
" />
<path d="M90.3304 43.6967
L94.1404 43.6967
" />
<path d="M90.3304 48.1417
L94.1404 48.1417
" />
<path d="M94.1404 43.6967
L94.1404 44.6942
" />
<path d="M94.1404 47.1442
L96.6904 47.1442
" />
<path d="M94.1404 48.1417
L94.1404 47.1442
" />
<path d="M96.6904 44.6942
L94.1404 44.6942
" />
<path d="M96.6904 47.1442
L96.6904 44.6942
" />
<path d="M75.8408 38.5446
L75.8408 36.0946
" />
<path d="M75.8408 36.0946
L73.2408 36.0946
" />
<path d="M73.2408 39.5421
L66.8908 39.5421
" />
<path d="M73.2408 38.5446
L75.8408 38.5446
" />
<path d="M73.2408 38.5446
L73.2408 39.5421
" />
<path d="M73.2408 36.0946
L73.2408 35.0971
" />
<path d="M73.2408 35.0971
L66.8908 35.0971
" />
<path d="M66.8908 39.5421
L65.4508 38.5221
" />
<path d="M66.8908 35.0971
L65.4508 34.0771
" />
<path d="M65.4508 38.5221
L61.6408 38.5221
" />
<path d="M65.4508 34.0771
L61.6408 34.0771
" />
<path d="M61.6408 38.5221
L61.6408 37.5246
" />
<path d="M61.6408 35.0746
L59.0908 35.0746
" />
<path d="M61.6408 34.0771
L61.6408 35.0746
" />
<path d="M59.0908 37.5246
L61.6408 37.5246
" />
<path d="M59.0908 35.0746
L59.0908 37.5246
" />
<path d="M89.4654 67.4867
L89.4654 69.9367
" />
<path d="M89.4654 69.9367
L92.0654 69.9367
" />
<path d="M92.0654 66.4892
L98.4154 66.4892
" />
<path d="M92.0654 67.4867
L89.4654 67.4867
" />
<path d="M92.0654 67.4867
L92.0654 66.4892
" />
<path d="M92.0654 69.9367
L92.0654 70.9342
" />
<path d="M92.0654 70.9342
L98.4154 70.9342
" />
<path d="M98.4154 66.4892
L99.8554 67.5092
" />
<path d="M98.4154 70.9342
L99.8554 71.9542
" />
<path d="M99.8554 67.5092
L103.6654 67.5092
" />
<path d="M99.8554 71.9542
L103.6654 71.9542
" />
<path d="M103.6654 67.5092
L103.6654 68.5067
" />
<path d="M103.6654 70.9567
L106.2154 70.9567
" />
<path d="M103.6654 71.9542
L103.6654 70.9567
" />
<path d="M106.2154 68.5067
L103.6654 68.5067
" />
<path d="M106.2154 70.9567
L106.2154 68.5067
" />
<path d="M241.8654 67.4867
L241.8654 69.9367
" />
<path d="M241.8654 69.9367
L244.4654 69.9367
" />
<path d="M244.4654 66.4892
L250.8154 66.4892
" />
<path d="M244.4654 67.4867
L241.8654 67.4867
" />
<path d="M244.4654 67.4867
L244.4654 66.4892
" />
<path d="M244.4654 69.9367
L244.4654 70.9342
" />
<path d="M244.4654 70.9342
L250.8154 70.9342
" />
<path d="M250.8154 66.4892
L252.2554 67.5092
" />
<path d="M250.8154 70.9342
L252.2554 71.9542
" />
<path d="M252.2554 67.5092
L256.0654 67.5092
" />
<path d="M252.2554 71.9542
L256.0654 71.9542
" />
<path d="M256.0654 67.5092
L256.0654 68.5067
" />
<path d="M256.0654 70.9567
L258.6154 70.9567
" />
<path d="M256.0654 71.9542
L256.0654 70.9567
" />
<path d="M258.6154 68.5067
L256.0654 68.5067
" />
<path d="M258.6154 70.9567
L258.6154 68.5067
" />
<path d="M56.7908 19.4946
L56.7908 17.0446
" />
<path d="M56.7908 17.0446
L54.1908 17.0446
" />
<path d="M54.1908 20.4921
L47.8408 20.4921
" />
<path d="M54.1908 19.4946
L56.7908 19.4946
" />
<path d="M54.1908 19.4946
L54.1908 20.4921
" />
<path d="M54.1908 17.0446
L54.1908 16.0471
" />
<path d="M54.1908 16.0471
L47.8408 16.0471
" />
<path d="M47.8408 20.4921
L46.4008 19.4721
" />
<path d="M47.8408 16.0471
L46.4008 15.0271
" />
<path d="M46.4008 19.4721
L42.5908 19.4721
" />
<path d="M46.4008 15.0271
L42.5908 15.0271
" />
<path d="M42.5908 19.4721
L42.5908 18.4746
" />
<path d="M42.5908 16.0246
L40.0408 16.0246
" />
<path d="M42.5908 15.0271
L42.5908 16.0246
" />
<path d="M40.0408 18.4746
L42.5908 18.4746
" />
<path d="M40.0408 16.0246
L40.0408 18.4746
" />
<path d="M122.8029 43.6742
L122.8029 46.1242
" />
<path d="M122.8029 46.1242
L125.4029 46.1242
" />
<path d="M125.4029 42.6767
L131.7529 42.6767
" />
<path d="M125.4029 43.6742
L122.8029 43.6742
" />
<path d="M125.4029 43.6742
L125.4029 42.6767
" />
<path d="M125.4029 46.1242
L125.4029 47.1217
" />
<path d="M125.4029 47.1217
L131.7529 47.1217
" />
<path d="M131.7529 42.6767
L133.1929 43.6967
" />
<path d="M131.7529 47.1217
L133.1929 48.1417
" />
<path d="M133.1929 43.6967
L137.0029 43.6967
" />
<path d="M133.1929 48.1417
L137.0029 48.1417
" />
<path d="M137.0029 43.6967
L137.0029 44.6942
" />
<path d="M137.0029 47.1442
L139.5529 47.1442
" />
<path d="M137.0029 48.1417
L137.0029 47.1442
" />
<path d="M139.5529 44.6942
L137.0029 44.6942
" />
<path d="M139.5529 47.1442
L139.5529 44.6942
" />
<path d="M160.9029 43.6742
L160.9029 46.1242
" />
<path d="M160.9029 46.1242
L163.5029 46.1242
" />
<path d="M163.5029 42.6767
L169.8529 42.6767
" />
<path d="M163.5029 43.6742
L160.9029 43.6742
" />
<path d="M163.5029 43.6742
L163.5029 42.6767
" />
<path d="M163.5029 46.1242
L163.5029 47.1217
" />
<path d="M163.5029 47.1217
L169.8529 47.1217
" />
<path d="M169.8529 42.6767
L171.2929 43.6967
" />
<path d="M169.8529 47.1217
L171.2929 48.1417
" />
<path d="M171.2929 43.6967
L175.1029 43.6967
" />
<path d="M171.2929 48.1417
L175.1029 48.1417
" />
<path d="M175.1029 43.6967
L175.1029 44.6942
" />
<path d="M175.1029 47.1442
L177.6529 47.1442
" />
<path d="M175.1029 48.1417
L175.1029 47.1442
" />
<path d="M177.6529 44.6942
L175.1029 44.6942
" />
<path d="M177.6529 47.1442
L177.6529 44.6942
" />
<path d="M175.8533 19.4946
L175.8533 17.0446
" />
<path d="M175.8533 17.0446
L173.2533 17.0446
" />
<path d="M173.2533 20.4921
L166.9033 20.4921
" />
<path d="M173.2533 19.4946
L175.8533 19.4946
" />
<path d="M173.2533 19.4946
L173.2533 20.4921
" />
<path d="M173.2533 17.0446
L173.2533 16.0471
" />
<path d="M173.2533 16.0471
L166.9033 16.0471
" />
<path d="M166.9033 20.4921
L165.4633 19.4721
" />
<path d="M166.9033 16.0471
L165.4633 15.0271
" />
<path d="M165.4633 19.4721
L161.6533 19.4721
" />
<path d="M165.4633 15.0271
L161.6533 15.0271
" />
<path d="M161.6533 19.4721
L161.6533 18.4746
" />
<path d="M161.6533 16.0246
L159.1033 16.0246
" />
<path d="M161.6533 15.0271
L161.6533 16.0246
" />
<path d="M159.1033 18.4746
L161.6533 18.4746
" />
<path d="M159.1033 16.0246
L159.1033 18.4746
" />
<path d="M156.8033 38.5446
L156.8033 36.0946
" />
<path d="M156.8033 36.0946
L154.2033 36.0946
" />
<path d="M154.2033 39.5421
L147.8533 39.5421
" />
<path d="M154.2033 38.5446
L156.8033 38.5446
" />
<path d="M154.2033 38.5446
L154.2033 39.5421
" />
<path d="M154.2033 36.0946
L154.2033 35.0971
" />
<path d="M154.2033 35.0971
L147.8533 35.0971
" />
<path d="M147.8533 39.5421
L146.4133 38.5221
" />
<path d="M147.8533 35.0971
L146.4133 34.0771
" />
<path d="M146.4133 38.5221
L142.6033 38.5221
" />
<path d="M146.4133 34.0771
L142.6033 34.0771
" />
<path d="M142.6033 38.5221
L142.6033 37.5246
" />
<path d="M142.6033 35.0746
L140.0533 35.0746
" />
<path d="M142.6033 34.0771
L142.6033 35.0746
" />
<path d="M140.0533 37.5246
L142.6033 37.5246
" />
<path d="M140.0533 35.0746
L140.0533 37.5246
" />
<path d="M218.0529 43.6742
L218.0529 46.1242
" />
<path d="M218.0529 46.1242
L220.6529 46.1242
" />
<path d="M220.6529 42.6767
L227.0029 42.6767
" />
<path d="M220.6529 43.6742
L218.0529 43.6742
" />
<path d="M220.6529 43.6742
L220.6529 42.6767
" />
<path d="M220.6529 46.1242
L220.6529 47.1217
" />
<path d="M220.6529 47.1217
L227.0029 47.1217
" />
<path d="M227.0029 42.6767
L228.4429 43.6967
" />
<path d="M227.0029 47.1217
L228.4429 48.1417
" />
<path d="M228.4429 43.6967
L232.2529 43.6967
" />
<path d="M228.4429 48.1417
L232.2529 48.1417
" />
<path d="M232.2529 43.6967
L232.2529 44.6942
" />
<path d="M232.2529 47.1442
L234.8029 47.1442
" />
<path d="M232.2529 48.1417
L232.2529 47.1442
" />
<path d="M234.8029 44.6942
L232.2529 44.6942
" />
<path d="M234.8029 47.1442
L234.8029 44.6942
" />
<path d="M98.9904 43.6742
L98.9904 46.1242
" />
<path d="M98.9904 46.1242
L101.5904 46.1242
" />
<path d="M101.5904 42.6767
L107.9404 42.6767
" />
<path d="M101.5904 43.6742
L98.9904 43.6742
" />
<path d="M101.5904 43.6742
L101.5904 42.6767
" />
<path d="M101.5904 46.1242
L101.5904 47.1217
" />
<path d="M101.5904 47.1217
L107.9404 47.1217
" />
<path d="M107.9404 42.6767
L109.3804 43.6967
" />
<path d="M107.9404 47.1217
L109.3804 48.1417
" />
<path d="M109.3804 43.6967
L113.1904 43.6967
" />
<path d="M109.3804 48.1417
L113.1904 48.1417
" />
<path d="M113.1904 43.6967
L113.1904 44.6942
" />
<path d="M113.1904 47.1442
L115.7404 47.1442
" />
<path d="M113.1904 48.1417
L113.1904 47.1442
" />
<path d="M115.7404 44.6942
L113.1904 44.6942
" />
<path d="M115.7404 47.1442
L115.7404 44.6942
" />
<path d="M260.9154 5.5742
L260.9154 8.0242
" />
<path d="M260.9154 8.0242
L263.5154 8.0242
" />
<path d="M263.5154 4.5767
L269.8654 4.5767
" />
<path d="M263.5154 5.5742
L260.9154 5.5742
" />
<path d="M263.5154 5.5742
L263.5154 4.5767
" />
<path d="M263.5154 8.0242
L263.5154 9.0217
" />
<path d="M263.5154 9.0217
L269.8654 9.0217
" />
<path d="M269.8654 4.5767
L271.3054 5.5967
" />
<path d="M269.8654 9.0217
L271.3054 10.0417
" />
<path d="M271.3054 5.5967
L275.1154 5.5967
" />
<path d="M271.3054 10.0417
L275.1154 10.0417
" />
<path d="M275.1154 5.5967
L275.1154 6.5942
" />
<path d="M275.1154 9.0442
L277.6654 9.0442
" />
<path d="M275.1154 10.0417
L275.1154 9.0442
" />
<path d="M277.6654 6.5942
L275.1154 6.5942
" />
<path d="M277.6654 9.0442
L277.6654 6.5942
" />
<path d="M233.0033 19.4946
L233.0033 17.0446
" />
<path d="M233.0033 17.0446
L230.4033 17.0446
" />
<path d="M230.4033 20.4921
L224.0533 20.4921
" />
<path d="M230.4033 19.4946
L233.0033 19.4946
" />
<path d="M230.4033 19.4946
L230.4033 20.4921
" />
<path d="M230.4033 17.0446
L230.4033 16.0471
" />
<path d="M230.4033 16.0471
L224.0533 16.0471
" />
<path d="M224.0533 20.4921
L222.6133 19.4721
" />
<path d="M224.0533 16.0471
L222.6133 15.0271
" />
<path d="M222.6133 19.4721
L218.8033 19.4721
" />
<path d="M222.6133 15.0271
L218.8033 15.0271
" />
<path d="M218.8033 19.4721
L218.8033 18.4746
" />
<path d="M218.8033 16.0246
L216.2533 16.0246
" />
<path d="M218.8033 15.0271
L218.8033 16.0246
" />
<path d="M216.2533 18.4746
L218.8033 18.4746
" />
<path d="M216.2533 16.0246
L216.2533 18.4746
" />
<path d="M222.8154 67.4867
L222.8154 69.9367
" />
<path d="M222.8154 69.9367
L225.4154 69.9367
" />
<path d="M225.4154 66.4892
L231.7654 66.4892
" />
<path d="M225.4154 67.4867
L222.8154 67.4867
" />
<path d="M225.4154 67.4867
L225.4154 66.4892
" />
<path d="M225.4154 69.9367
L225.4154 70.9342
" />
<path d="M225.4154 70.9342
L231.7654 70.9342
" />
<path d="M231.7654 66.4892
L233.2054 67.5092
" />
<path d="M231.7654 70.9342
L233.2054 71.9542
" />
<path d="M233.2054 67.5092
L237.0154 67.5092
" />
<path d="M233.2054 71.9542
L237.0154 71.9542
" />
<path d="M237.0154 67.5092
L237.0154 68.5067
" />
<path d="M237.0154 70.9567
L239.5654 70.9567
" />
<path d="M237.0154 71.9542
L237.0154 70.9567
" />
<path d="M239.5654 68.5067
L237.0154 68.5067
" />
<path d="M239.5654 70.9567
L239.5654 68.5067
" />
<path d="M41.8404 67.4867
L41.8404 69.9367
" />
<path d="M41.8404 69.9367
L44.4404 69.9367
" />
<path d="M44.4404 66.4892
L50.7904 66.4892
" />
<path d="M44.4404 67.4867
L41.8404 67.4867
" />
<path d="M44.4404 67.4867
L44.4404 66.4892
" />
<path d="M44.4404 69.9367
L44.4404 70.9342
" />
<path d="M44.4404 70.9342
L50.7904 70.9342
" />
<path d="M50.7904 66.4892
L52.2304 67.5092
" />
<path d="M50.7904 70.9342
L52.2304 71.9542
" />
<path d="M52.2304 67.5092
L56.0404 67.5092
" />
<path d="M52.2304 71.9542
L56.0404 71.9542
" />
<path d="M56.0404 67.5092
L56.0404 68.5067
" />
<path d="M56.0404 70.9567
L58.5904 70.9567
" />
<path d="M56.0404 71.9542
L56.0404 70.9567
" />
<path d="M58.5904 68.5067
L56.0404 68.5067
" />
<path d="M58.5904 70.9567
L58.5904 68.5067
" />
<path d="M175.8533 38.5446
L175.8533 36.0946
" />
<path d="M175.8533 36.0946
L173.2533 36.0946
" />
<path d="M173.2533 39.5421
L166.9033 39.5421
" />
<path d="M173.2533 38.5446
L175.8533 38.5446
" />
<path d="M173.2533 38.5446
L173.2533 39.5421
" />
<path d="M173.2533 36.0946
L173.2533 35.0971
" />
<path d="M173.2533 35.0971
L166.9033 35.0971
" />
<path d="M166.9033 39.5421
L165.4633 38.5221
" />
<path d="M166.9033 35.0971
L165.4633 34.0771
" />
<path d="M165.4633 38.5221
L161.6533 38.5221
" />
<path d="M165.4633 34.0771
L161.6533 34.0771
" />
<path d="M161.6533 38.5221
L161.6533 37.5246
" />
<path d="M161.6533 35.0746
L159.1033 35.0746
" />
<path d="M161.6533 34.0771
L161.6533 35.0746
" />
<path d="M159.1033 37.5246
L161.6533 37.5246
" />
<path d="M159.1033 35.0746
L159.1033 37.5246
" />
<path d="M22.7904 67.4867
L22.7904 69.9367
" />
<path d="M22.7904 69.9367
L25.3904 69.9367
" />
<path d="M25.3904 66.4892
L31.7404 66.4892
" />
<path d="M25.3904 67.4867
L22.7904 67.4867
" />
<path d="M25.3904 67.4867
L25.3904 66.4892
" />
<path d="M25.3904 69.9367
L25.3904 70.9342
" />
<path d="M25.3904 70.9342
L31.7404 70.9342
" />
<path d="M31.7404 66.4892
L33.1804 67.5092
" />
<path d="M31.7404 70.9342
L33.1804 71.9542
" />
<path d="M33.1804 67.5092
L36.9904 67.5092
" />
<path d="M33.1804 71.9542
L36.9904 71.9542
" />
<path d="M36.9904 67.5092
L36.9904 68.5067
" />
<path d="M36.9904 70.9567
L39.5404 70.9567
" />
<path d="M36.9904 71.9542
L36.9904 70.9567
" />
<path d="M39.5404 68.5067
L36.9904 68.5067
" />
<path d="M39.5404 70.9567
L39.5404 68.5067
" />
<path d="M137.7533 38.5446
L137.7533 36.0946
" />
<path d="M137.7533 36.0946
L135.1533 36.0946
" />
<path d="M135.1533 39.5421
L128.8033 39.5421
" />
<path d="M135.1533 38.5446
L137.7533 38.5446
" />
<path d="M135.1533 38.5446
L135.1533 39.5421
" />
<path d="M135.1533 36.0946
L135.1533 35.0971
" />
<path d="M135.1533 35.0971
L128.8033 35.0971
" />
<path d="M128.8033 39.5421
L127.3633 38.5221
" />
<path d="M128.8033 35.0971
L127.3633 34.0771
" />
<path d="M127.3633 38.5221
L123.5533 38.5221
" />
<path d="M127.3633 34.0771
L123.5533 34.0771
" />
<path d="M123.5533 38.5221
L123.5533 37.5246
" />
<path d="M123.5533 35.0746
L121.0033 35.0746
" />
<path d="M123.5533 34.0771
L123.5533 35.0746
" />
<path d="M121.0033 37.5246
L123.5533 37.5246
" />
<path d="M121.0033 35.0746
L121.0033 37.5246
" />
<path d="M94.8908 19.4946
L94.8908 17.0446
" />
<path d="M94.8908 17.0446
L92.2908 17.0446
" />
<path d="M92.2908 20.4921
L85.9408 20.4921
" />
<path d="M92.2908 19.4946
L94.8908 19.4946
" />
<path d="M92.2908 19.4946
L92.2908 20.4921
" />
<path d="M92.2908 17.0446
L92.2908 16.0471
" />
<path d="M92.2908 16.0471
L85.9408 16.0471
" />
<path d="M85.9408 20.4921
L84.5008 19.4721
" />
<path d="M85.9408 16.0471
L84.5008 15.0271
" />
<path d="M84.5008 19.4721
L80.6908 19.4721
" />
<path d="M84.5008 15.0271
L80.6908 15.0271
" />
<path d="M80.6908 19.4721
L80.6908 18.4746
" />
<path d="M80.6908 16.0246
L78.1408 16.0246
" />
<path d="M80.6908 15.0271
L80.6908 16.0246
" />
<path d="M78.1408 18.4746
L80.6908 18.4746
" />
<path d="M78.1408 16.0246
L78.1408 18.4746
" />
<path d="M275.8658 38.5446
L275.8658 36.0946
" />
<path d="M275.8658 36.0946
L273.2658 36.0946
" />
<path d="M273.2658 39.5421
L266.9158 39.5421
" />
<path d="M273.2658 38.5446
L275.8658 38.5446
" />
<path d="M273.2658 38.5446
L273.2658 39.5421
" />
<path d="M273.2658 36.0946
L273.2658 35.0971
" />
<path d="M273.2658 35.0971
L266.9158 35.0971
" />
<path d="M266.9158 39.5421
L265.4758 38.5221
" />
<path d="M266.9158 35.0971
L265.4758 34.0771
" />
<path d="M265.4758 38.5221
L261.6658 38.5221
" />
<path d="M265.4758 34.0771
L261.6658 34.0771
" />
<path d="M261.6658 38.5221
L261.6658 37.5246
" />
<path d="M261.6658 35.0746
L259.1158 35.0746
" />
<path d="M261.6658 34.0771
L261.6658 35.0746
" />
<path d="M259.1158 37.5246
L261.6658 37.5246
" />
<path d="M259.1158 35.0746
L259.1158 37.5246
" />
<path d="M141.8529 43.6742
L141.8529 46.1242
" />
<path d="M141.8529 46.1242
L144.4529 46.1242
" />
<path d="M144.4529 42.6767
L150.8029 42.6767
" />
<path d="M144.4529 43.6742
L141.8529 43.6742
" />
<path d="M144.4529 43.6742
L144.4529 42.6767
" />
<path d="M144.4529 46.1242
L144.4529 47.1217
" />
<path d="M144.4529 47.1217
L150.8029 47.1217
" />
<path d="M150.8029 42.6767
L152.2429 43.6967
" />
<path d="M150.8029 47.1217
L152.2429 48.1417
" />
<path d="M152.2429 43.6967
L156.0529 43.6967
" />
<path d="M152.2429 48.1417
L156.0529 48.1417
" />
<path d="M156.0529 43.6967
L156.0529 44.6942
" />
<path d="M156.0529 47.1442
L158.6029 47.1442
" />
<path d="M156.0529 48.1417
L156.0529 47.1442
" />
<path d="M158.6029 44.6942
L156.0529 44.6942
" />
<path d="M158.6029 47.1442
L158.6029 44.6942
" />
<path d="M160.9029 67.4867
L160.9029 69.9367
" />
<path d="M160.9029 69.9367
L163.5029 69.9367
" />
<path d="M163.5029 66.4892
L169.8529 66.4892
" />
<path d="M163.5029 67.4867
L160.9029 67.4867
" />
<path d="M163.5029 67.4867
L163.5029 66.4892
" />
<path d="M163.5029 69.9367
L163.5029 70.9342
" />
<path d="M163.5029 70.9342
L169.8529 70.9342
" />
<path d="M169.8529 66.4892
L171.2929 67.5092
" />
<path d="M169.8529 70.9342
L171.2929 71.9542
" />
<path d="M171.2929 67.5092
L175.1029 67.5092
" />
<path d="M171.2929 71.9542
L175.1029 71.9542
" />
<path d="M175.1029 67.5092
L175.1029 68.5067
" />
<path d="M175.1029 70.9567
L177.6529 70.9567
" />
<path d="M175.1029 71.9542
L175.1029 70.9567
" />
<path d="M177.6529 68.5067
L175.1029 68.5067
" />
<path d="M177.6529 70.9567
L177.6529 68.5067
" />
<path d="M75.8408 19.4946
L75.8408 17.0446
" />
<path d="M75.8408 17.0446
L73.2408 17.0446
" />
<path d="M73.2408 20.4921
L66.8908 20.4921
" />
<path d="M73.2408 19.4946
L75.8408 19.4946
" />
<path d="M73.2408 19.4946
L73.2408 20.4921
" />
<path d="M73.2408 17.0446
L73.2408 16.0471
" />
<path d="M73.2408 16.0471
L66.8908 16.0471
" />
<path d="M66.8908 20.4921
L65.4508 19.4721
" />
<path d="M66.8908 16.0471
L65.4508 15.0271
" />
<path d="M65.4508 19.4721
L61.6408 19.4721
" />
<path d="M65.4508 15.0271
L61.6408 15.0271
" />
<path d="M61.6408 19.4721
L61.6408 18.4746
" />
<path d="M61.6408 16.0246
L59.0908 16.0246
" />
<path d="M61.6408 15.0271
L61.6408 16.0246
" />
<path d="M59.0908 18.4746
L61.6408 18.4746
" />
<path d="M59.0908 16.0246
L59.0908 18.4746
" />
<path d="M137.7533 19.4946
L137.7533 17.0446
" />
<path d="M137.7533 17.0446
L135.1533 17.0446
" />
<path d="M135.1533 20.4921
L128.8033 20.4921
" />
<path d="M135.1533 19.4946
L137.7533 19.4946
" />
<path d="M135.1533 19.4946
L135.1533 20.4921
" />
<path d="M135.1533 17.0446
L135.1533 16.0471
" />
<path d="M135.1533 16.0471
L128.8033 16.0471
" />
<path d="M128.8033 20.4921
L127.3633 19.4721
" />
<path d="M128.8033 16.0471
L127.3633 15.0271
" />
<path d="M127.3633 19.4721
L123.5533 19.4721
" />
<path d="M127.3633 15.0271
L123.5533 15.0271
" />
<path d="M123.5533 19.4721
L123.5533 18.4746
" />
<path d="M123.5533 16.0246
L121.0033 16.0246
" />
<path d="M123.5533 15.0271
L123.5533 16.0246
" />
<path d="M121.0033 18.4746
L123.5533 18.4746
" />
<path d="M121.0033 16.0246
L121.0033 18.4746
" />
<path d="M113.9408 38.5446
L113.9408 36.0946
" />
<path d="M113.9408 36.0946
L111.3408 36.0946
" />
<path d="M111.3408 39.5421
L104.9908 39.5421
" />
<path d="M111.3408 38.5446
L113.9408 38.5446
" />
<path d="M111.3408 38.5446
L111.3408 39.5421
" />
<path d="M111.3408 36.0946
L111.3408 35.0971
" />
<path d="M111.3408 35.0971
L104.9908 35.0971
" />
<path d="M104.9908 39.5421
L103.5508 38.5221
" />
<path d="M104.9908 35.0971
L103.5508 34.0771
" />
<path d="M103.5508 38.5221
L99.7408 38.5221
" />
<path d="M103.5508 34.0771
L99.7408 34.0771
" />
<path d="M99.7408 38.5221
L99.7408 37.5246
" />
<path d="M99.7408 35.0746
L97.1908 35.0746
" />
<path d="M99.7408 34.0771
L99.7408 35.0746
" />
<path d="M97.1908 37.5246
L99.7408 37.5246
" />
<path d="M97.1908 35.0746
L97.1908 37.5246
" />
<path d="M60.8904 67.4867
L60.8904 69.9367
" />
<path d="M60.8904 69.9367
L63.4904 69.9367
" />
<path d="M63.4904 66.4892
L69.8404 66.4892
" />
<path d="M63.4904 67.4867
L60.8904 67.4867
" />
<path d="M63.4904 67.4867
L63.4904 66.4892
" />
<path d="M63.4904 69.9367
L63.4904 70.9342
" />
<path d="M63.4904 70.9342
L69.8404 70.9342
" />
<path d="M69.8404 66.4892
L71.2804 67.5092
" />
<path d="M69.8404 70.9342
L71.2804 71.9542
" />
<path d="M71.2804 67.5092
L75.0904 67.5092
" />
<path d="M71.2804 71.9542
L75.0904 71.9542
" />
<path d="M75.0904 67.5092
L75.0904 68.5067
" />
<path d="M75.0904 70.9567
L77.6404 70.9567
" />
<path d="M75.0904 71.9542
L75.0904 70.9567
" />
<path d="M77.6404 68.5067
L75.0904 68.5067
" />
<path d="M77.6404 70.9567
L77.6404 68.5067
" />
<path d="M60.8904 43.6742
L60.8904 46.1242
" />
<path d="M60.8904 46.1242
L63.4904 46.1242
" />
<path d="M63.4904 42.6767
L69.8404 42.6767
" />
<path d="M63.4904 43.6742
L60.8904 43.6742
" />
<path d="M63.4904 43.6742
L63.4904 42.6767
" />
<path d="M63.4904 46.1242
L63.4904 47.1217
" />
<path d="M63.4904 47.1217
L69.8404 47.1217
" />
<path d="M69.8404 42.6767
L71.2804 43.6967
" />
<path d="M69.8404 47.1217
L71.2804 48.1417
" />
<path d="M71.2804 43.6967
L75.0904 43.6967
" />
<path d="M71.2804 48.1417
L75.0904 48.1417
" />
<path d="M75.0904 43.6967
L75.0904 44.6942
" />
<path d="M75.0904 47.1442
L77.6404 47.1442
" />
<path d="M75.0904 48.1417
L75.0904 47.1442
" />
<path d="M77.6404 44.6942
L75.0904 44.6942
" />
<path d="M77.6404 47.1442
L77.6404 44.6942
" />
<path d="M18.6908 19.4946
L18.6908 17.0446
" />
<path d="M18.6908 17.0446
L16.0908 17.0446
" />
<path d="M16.0908 20.4921
L9.7408 20.4921
" />
<path d="M16.0908 19.4946
L18.6908 19.4946
" />
<path d="M16.0908 19.4946
L16.0908 20.4921
" />
<path d="M16.0908 17.0446
L16.0908 16.0471
" />
<path d="M16.0908 16.0471
L9.7408 16.0471
" />
<path d="M9.7408 20.4921
L8.3008 19.4721
" />
<path d="M9.7408 16.0471
L8.3008 15.0271
" />
<path d="M8.3008 19.4721
L4.4908 19.4721
" />
<path d="M8.3008 15.0271
L4.4908 15.0271
" />
<path d="M4.4908 19.4721
L4.4908 18.4746
" />
<path d="M4.4908 16.0246
L1.9408 16.0246
" />
<path d="M4.4908 15.0271
L4.4908 16.0246
" />
<path d="M1.9408 18.4746
L4.4908 18.4746
" />
<path d="M1.9408 16.0246
L1.9408 18.4746
" />
<path d="M199.0029 43.6742
L199.0029 46.1242
" />
<path d="M199.0029 46.1242
L201.6029 46.1242
" />
<path d="M201.6029 42.6767
L207.9529 42.6767
" />
<path d="M201.6029 43.6742
L199.0029 43.6742
" />
<path d="M201.6029 43.6742
L201.6029 42.6767
" />
<path d="M201.6029 46.1242
L201.6029 47.1217
" />
<path d="M201.6029 47.1217
L207.9529 47.1217
" />
<path d="M207.9529 42.6767
L209.3929 43.6967
" />
<path d="M207.9529 47.1217
L209.3929 48.1417
" />
<path d="M209.3929 43.6967
L213.2029 43.6967
" />
<path d="M209.3929 48.1417
L213.2029 48.1417
" />
<path d="M213.2029 43.6967
L213.2029 44.6942
" />
<path d="M213.2029 47.1442
L215.7529 47.1442
" />
<path d="M213.2029 48.1417
L213.2029 47.1442
" />
<path d="M215.7529 44.6942
L213.2029 44.6942
" />
<path d="M215.7529 47.1442
L215.7529 44.6942
" />
<path d="M37.7408 19.4946
L37.7408 17.0446
" />
<path d="M37.7408 17.0446
L35.1408 17.0446
" />
<path d="M35.1408 20.4921
L28.7908 20.4921
" />
<path d="M35.1408 19.4946
L37.7408 19.4946
" />
<path d="M35.1408 19.4946
L35.1408 20.4921
" />
<path d="M35.1408 17.0446
L35.1408 16.0471
" />
<path d="M35.1408 16.0471
L28.7908 16.0471
" />
<path d="M28.7908 20.4921
L27.3508 19.4721
" />
<path d="M28.7908 16.0471
L27.3508 15.0271
" />
<path d="M27.3508 19.4721
L23.5408 19.4721
" />
<path d="M27.3508 15.0271
L23.5408 15.0271
" />
<path d="M23.5408 19.4721
L23.5408 18.4746
" />
<path d="M23.5408 16.0246
L20.9908 16.0246
" />
<path d="M23.5408 15.0271
L23.5408 16.0246
" />
<path d="M20.9908 18.4746
L23.5408 18.4746
" />
<path d="M20.9908 16.0246
L20.9908 18.4746
" />
<path d="M18.6908 38.5446
L18.6908 36.0946
" />
<path d="M18.6908 36.0946
L16.0908 36.0946
" />
<path d="M16.0908 39.5421
L9.7408 39.5421
" />
<path d="M16.0908 38.5446
L18.6908 38.5446
" />
<path d="M16.0908 38.5446
L16.0908 39.5421
" />
<path d="M16.0908 36.0946
L16.0908 35.0971
" />
<path d="M16.0908 35.0971
L9.7408 35.0971
" />
<path d="M9.7408 39.5421
L8.3008 38.5221
" />
<path d="M9.7408 35.0971
L8.3008 34.0771
" />
<path d="M8.3008 38.5221
L4.4908 38.5221
" />
<path d="M8.3008 34.0771
L4.4908 34.0771
" />
<path d="M4.4908 38.5221
L4.4908 37.5246
" />
<path d="M4.4908 35.0746
L1.9408 35.0746
" />
<path d="M4.4908 34.0771
L4.4908 35.0746
" />
<path d="M1.9408 37.5246
L4.4908 37.5246
" />
<path d="M1.9408 35.0746
L1.9408 37.5246
" />
<path d="M194.9033 19.4946
L194.9033 17.0446
" />
<path d="M194.9033 17.0446
L192.3033 17.0446
" />
<path d="M192.3033 20.4921
L185.9533 20.4921
" />
<path d="M192.3033 19.4946
L194.9033 19.4946
" />
<path d="M192.3033 19.4946
L192.3033 20.4921
" />
<path d="M192.3033 17.0446
L192.3033 16.0471
" />
<path d="M192.3033 16.0471
L185.9533 16.0471
" />
<path d="M185.9533 20.4921
L184.5133 19.4721
" />
<path d="M185.9533 16.0471
L184.5133 15.0271
" />
<path d="M184.5133 19.4721
L180.7033 19.4721
" />
<path d="M184.5133 15.0271
L180.7033 15.0271
" />
<path d="M180.7033 19.4721
L180.7033 18.4746
" />
<path d="M180.7033 16.0246
L178.1533 16.0246
" />
<path d="M180.7033 15.0271
L180.7033 16.0246
" />
<path d="M178.1533 18.4746
L180.7033 18.4746
" />
<path d="M178.1533 16.0246
L178.1533 18.4746
" />
<path d="M56.7908 38.5446
L56.7908 36.0946
" />
<path d="M56.7908 36.0946
L54.1908 36.0946
" />
<path d="M54.1908 39.5421
L47.8408 39.5421
" />
<path d="M54.1908 38.5446
L56.7908 38.5446
" />
<path d="M54.1908 38.5446
L54.1908 39.5421
" />
<path d="M54.1908 36.0946
L54.1908 35.0971
" />
<path d="M54.1908 35.0971
L47.8408 35.0971
" />
<path d="M47.8408 39.5421
L46.4008 38.5221
" />
<path d="M47.8408 35.0971
L46.4008 34.0771
" />
<path d="M46.4008 38.5221
L42.5908 38.5221
" />
<path d="M46.4008 34.0771
L42.5908 34.0771
" />
<path d="M42.5908 38.5221
L42.5908 37.5246
" />
<path d="M42.5908 35.0746
L40.0408 35.0746
" />
<path d="M42.5908 34.0771
L42.5908 35.0746
" />
<path d="M40.0408 37.5246
L42.5908 37.5246
" />
<path d="M40.0408 35.0746
L40.0408 37.5246
" />
<path d="M22.7904 43.6742
L22.7904 46.1242
" />
<path d="M22.7904 46.1242
L25.3904 46.1242
" />
<path d="M25.3904 42.6767
L31.7404 42.6767
" />
<path d="M25.3904 43.6742
L22.7904 43.6742
" />
<path d="M25.3904 43.6742
L25.3904 42.6767
" />
<path d="M25.3904 46.1242
L25.3904 47.1217
" />
<path d="M25.3904 47.1217
L31.7404 47.1217
" />
<path d="M31.7404 42.6767
L33.1804 43.6967
" />
<path d="M31.7404 47.1217
L33.1804 48.1417
" />
<path d="M33.1804 43.6967
L36.9904 43.6967
" />
<path d="M33.1804 48.1417
L36.9904 48.1417
" />
<path d="M36.9904 43.6967
L36.9904 44.6942
" />
<path d="M36.9904 47.1442
L39.5404 47.1442
" />
<path d="M36.9904 48.1417
L36.9904 47.1442
" />
<path d="M39.5404 44.6942
L36.9904 44.6942
" />
<path d="M39.5404 47.1442
L39.5404 44.6942
" />
<path d="M179.9529 43.6742
L179.9529 46.1242
" />
<path d="M179.9529 46.1242
L182.5529 46.1242
" />
<path d="M182.5529 42.6767
L188.9029 42.6767
" />
<path d="M182.5529 43.6742
L179.9529 43.6742
" />
<path d="M182.5529 43.6742
L182.5529 42.6767
" />
<path d="M182.5529 46.1242
L182.5529 47.1217
" />
<path d="M182.5529 47.1217
L188.9029 47.1217
" />
<path d="M188.9029 42.6767
L190.3429 43.6967
" />
<path d="M188.9029 47.1217
L190.3429 48.1417
" />
<path d="M190.3429 43.6967
L194.1529 43.6967
" />
<path d="M190.3429 48.1417
L194.1529 48.1417
" />
<path d="M194.1529 43.6967
L194.1529 44.6942
" />
<path d="M194.1529 47.1442
L196.7029 47.1442
" />
<path d="M194.1529 48.1417
L194.1529 47.1442
" />
<path d="M196.7029 44.6942
L194.1529 44.6942
" />
<path d="M196.7029 47.1442
L196.7029 44.6942
" />
<path d="M241.8654 48.4367
L241.8654 50.8867
" />
<path d="M241.8654 50.8867
L244.4654 50.8867
" />
<path d="M244.4654 47.4392
L250.8154 47.4392
" />
<path d="M244.4654 48.4367
L241.8654 48.4367
" />
<path d="M244.4654 48.4367
L244.4654 47.4392
" />
<path d="M244.4654 50.8867
L244.4654 51.8842
" />
<path d="M244.4654 51.8842
L250.8154 51.8842
" />
<path d="M250.8154 47.4392
L252.2554 48.4592
" />
<path d="M250.8154 51.8842
L252.2554 52.9042
" />
<path d="M252.2554 48.4592
L256.0654 48.4592
" />
<path d="M252.2554 52.9042
L256.0654 52.9042
" />
<path d="M256.0654 48.4592
L256.0654 49.4567
" />
<path d="M256.0654 51.9067
L258.6154 51.9067
" />
<path d="M256.0654 52.9042
L256.0654 51.9067
" />
<path d="M258.6154 49.4567
L256.0654 49.4567
" />
<path d="M258.6154 51.9067
L258.6154 49.4567
" />
<path d="M156.8033 19.4946
L156.8033 17.0446
" />
<path d="M156.8033 17.0446
L154.2033 17.0446
" />
<path d="M154.2033 20.4921
L147.8533 20.4921
" />
<path d="M154.2033 19.4946
L156.8033 19.4946
" />
<path d="M154.2033 19.4946
L154.2033 20.4921
" />
<path d="M154.2033 17.0446
L154.2033 16.0471
" />
<path d="M154.2033 16.0471
L147.8533 16.0471
" />
<path d="M147.8533 20.4921
L146.4133 19.4721
" />
<path d="M147.8533 16.0471
L146.4133 15.0271
" />
<path d="M146.4133 19.4721
L142.6033 19.4721
" />
<path d="M146.4133 15.0271
L142.6033 15.0271
" />
<path d="M142.6033 19.4721
L142.6033 18.4746
" />
<path d="M142.6033 16.0246
L140.0533 16.0246
" />
<path d="M142.6033 15.0271
L142.6033 16.0246
" />
<path d="M140.0533 18.4746
L142.6033 18.4746
" />
<path d="M140.0533 16.0246
L140.0533 18.4746
" />
<path d="M213.9533 38.5446
L213.9533 36.0946
" />
<path d="M213.9533 36.0946
L211.3533 36.0946
" />
<path d="M211.3533 39.5421
L205.0033 39.5421
" />
<path d="M211.3533 38.5446
L213.9533 38.5446
" />
<path d="M211.3533 38.5446
L211.3533 39.5421
" />
<path d="M211.3533 36.0946
L211.3533 35.0971
" />
<path d="M211.3533 35.0971
L205.0033 35.0971
" />
<path d="M205.0033 39.5421
L203.5633 38.5221
" />
<path d="M205.0033 35.0971
L203.5633 34.0771
" />
<path d="M203.5633 38.5221
L199.7533 38.5221
" />
<path d="M203.5633 34.0771
L199.7533 34.0771
" />
<path d="M199.7533 38.5221
L199.7533 37.5246
" />
<path d="M199.7533 35.0746
L197.2033 35.0746
" />
<path d="M199.7533 34.0771
L199.7533 35.0746
" />
<path d="M197.2033 37.5246
L199.7533 37.5246
" />
<path d="M197.2033 35.0746
L197.2033 37.5246
" />
<path d="M256.8158 38.5446
L256.8158 36.0946
" />
<path d="M256.8158 36.0946
L254.2158 36.0946
" />
<path d="M254.2158 39.5421
L247.8658 39.5421
" />
<path d="M254.2158 38.5446
L256.8158 38.5446
" />
<path d="M254.2158 38.5446
L254.2158 39.5421
" />
<path d="M254.2158 36.0946
L254.2158 35.0971
" />
<path d="M254.2158 35.0971
L247.8658 35.0971
" />
<path d="M247.8658 39.5421
L246.4258 38.5221
" />
<path d="M247.8658 35.0971
L246.4258 34.0771
" />
<path d="M246.4258 38.5221
L242.6158 38.5221
" />
<path d="M246.4258 34.0771
L242.6158 34.0771
" />
<path d="M242.6158 38.5221
L242.6158 37.5246
" />
<path d="M242.6158 35.0746
L240.0658 35.0746
" />
<path d="M242.6158 34.0771
L242.6158 35.0746
" />
<path d="M240.0658 37.5246
L242.6158 37.5246
" />
<path d="M240.0658 35.0746
L240.0658 37.5246
" />
<path d="M3.7404 43.6742
L3.7404 46.1242
" />
<path d="M3.7404 46.1242
L6.3404 46.1242
" />
<path d="M6.3404 42.6767
L12.6904 42.6767
" />
<path d="M6.3404 43.6742
L3.7404 43.6742
" />
<path d="M6.3404 43.6742
L6.3404 42.6767
" />
<path d="M6.3404 46.1242
L6.3404 47.1217
" />
<path d="M6.3404 47.1217
L12.6904 47.1217
" />
<path d="M12.6904 42.6767
L14.1304 43.6967
" />
<path d="M12.6904 47.1217
L14.1304 48.1417
" />
<path d="M14.1304 43.6967
L17.9404 43.6967
" />
<path d="M14.1304 48.1417
L17.9404 48.1417
" />
<path d="M17.9404 43.6967
L17.9404 44.6942
" />
<path d="M17.9404 47.1442
L20.4904 47.1442
" />
<path d="M17.9404 48.1417
L17.9404 47.1442
" />
<path d="M20.4904 44.6942
L17.9404 44.6942
" />
<path d="M20.4904 47.1442
L20.4904 44.6942
" />
<path d="M213.9533 19.4946
L213.9533 17.0446
" />
<path d="M213.9533 17.0446
L211.3533 17.0446
" />
<path d="M211.3533 20.4921
L205.0033 20.4921
" />
<path d="M211.3533 19.4946
L213.9533 19.4946
" />
<path d="M211.3533 19.4946
L211.3533 20.4921
" />
<path d="M211.3533 17.0446
L211.3533 16.0471
" />
<path d="M211.3533 16.0471
L205.0033 16.0471
" />
<path d="M205.0033 20.4921
L203.5633 19.4721
" />
<path d="M205.0033 16.0471
L203.5633 15.0271
" />
<path d="M203.5633 19.4721
L199.7533 19.4721
" />
<path d="M203.5633 15.0271
L199.7533 15.0271
" />
<path d="M199.7533 19.4721
L199.7533 18.4746
" />
<path d="M199.7533 16.0246
L197.2033 16.0246
" />
<path d="M199.7533 15.0271
L199.7533 16.0246
" />
<path d="M197.2033 18.4746
L199.7533 18.4746
" />
<path d="M197.2033 16.0246
L197.2033 18.4746
" />
<path d="M241.8654 5.5742
L241.8654 8.0242
" />
<path d="M241.8654 8.0242
L244.4654 8.0242
" />
<path d="M244.4654 4.5767
L250.8154 4.5767
" />
<path d="M244.4654 5.5742
L241.8654 5.5742
" />
<path d="M244.4654 5.5742
L244.4654 4.5767
" />
<path d="M244.4654 8.0242
L244.4654 9.0217
" />
<path d="M244.4654 9.0217
L250.8154 9.0217
" />
<path d="M250.8154 4.5767
L252.2554 5.5967
" />
<path d="M250.8154 9.0217
L252.2554 10.0417
" />
<path d="M252.2554 5.5967
L256.0654 5.5967
" />
<path d="M252.2554 10.0417
L256.0654 10.0417
" />
<path d="M256.0654 5.5967
L256.0654 6.5942
" />
<path d="M256.0654 9.0442
L258.6154 9.0442
" />
<path d="M256.0654 10.0417
L256.0654 9.0442
" />
<path d="M258.6154 6.5942
L256.0654 6.5942
" />
<path d="M258.6154 9.0442
L258.6154 6.5942
" />
<path d="M260.9154 67.4867
L260.9154 69.9367
" />
<path d="M260.9154 69.9367
L263.5154 69.9367
" />
<path d="M263.5154 66.4892
L269.8654 66.4892
" />
<path d="M263.5154 67.4867
L260.9154 67.4867
" />
<path d="M263.5154 67.4867
L263.5154 66.4892
" />
<path d="M263.5154 69.9367
L263.5154 70.9342
" />
<path d="M263.5154 70.9342
L269.8654 70.9342
" />
<path d="M269.8654 66.4892
L271.3054 67.5092
" />
<path d="M269.8654 70.9342
L271.3054 71.9542
" />
<path d="M271.3054 67.5092
L275.1154 67.5092
" />
<path d="M271.3054 71.9542
L275.1154 71.9542
" />
<path d="M275.1154 67.5092
L275.1154 68.5067
" />
<path d="M275.1154 70.9567
L277.6654 70.9567
" />
<path d="M275.1154 71.9542
L275.1154 70.9567
" />
<path d="M277.6654 68.5067
L275.1154 68.5067
" />
<path d="M277.6654 70.9567
L277.6654 68.5067
" />
<path d="M41.8404 43.6742
L41.8404 46.1242
" />
<path d="M41.8404 46.1242
L44.4404 46.1242
" />
<path d="M44.4404 42.6767
L50.7904 42.6767
" />
<path d="M44.4404 43.6742
L41.8404 43.6742
" />
<path d="M44.4404 43.6742
L44.4404 42.6767
" />
<path d="M44.4404 46.1242
L44.4404 47.1217
" />
<path d="M44.4404 47.1217
L50.7904 47.1217
" />
<path d="M50.7904 42.6767
L52.2304 43.6967
" />
<path d="M50.7904 47.1217
L52.2304 48.1417
" />
<path d="M52.2304 43.6967
L56.0404 43.6967
" />
<path d="M52.2304 48.1417
L56.0404 48.1417
" />
<path d="M56.0404 43.6967
L56.0404 44.6942
" />
<path d="M56.0404 47.1442
L58.5904 47.1442
" />
<path d="M56.0404 48.1417
L56.0404 47.1442
" />
<path d="M58.5904 44.6942
L56.0404 44.6942
" />
<path d="M58.5904 47.1442
L58.5904 44.6942
" />
<path d="M113.9408 19.4946
L113.9408 17.0446
" />
<path d="M113.9408 17.0446
L111.3408 17.0446
" />
<path d="M111.3408 20.4921
L104.9908 20.4921
" />
<path d="M111.3408 19.4946
L113.9408 19.4946
" />
<path d="M111.3408 19.4946
L111.3408 20.4921
" />
<path d="M111.3408 17.0446
L111.3408 16.0471
" />
<path d="M111.3408 16.0471
L104.9908 16.0471
" />
<path d="M104.9908 20.4921
L103.5508 19.4721
" />
<path d="M104.9908 16.0471
L103.5508 15.0271
" />
<path d="M103.5508 19.4721
L99.7408 19.4721
" />
<path d="M103.5508 15.0271
L99.7408 15.0271
" />
<path d="M99.7408 19.4721
L99.7408 18.4746
" />
<path d="M99.7408 16.0246
L97.1908 16.0246
" />
<path d="M99.7408 15.0271
L99.7408 16.0246
" />
<path d="M97.1908 18.4746
L99.7408 18.4746
" />
<path d="M97.1908 16.0246
L97.1908 18.4746
" />
<path d="M194.9033 38.5446
L194.9033 36.0946
" />
<path d="M194.9033 36.0946
L192.3033 36.0946
" />
<path d="M192.3033 39.5421
L185.9533 39.5421
" />
<path d="M192.3033 38.5446
L194.9033 38.5446
" />
<path d="M192.3033 38.5446
L192.3033 39.5421
" />
<path d="M192.3033 36.0946
L192.3033 35.0971
" />
<path d="M192.3033 35.0971
L185.9533 35.0971
" />
<path d="M185.9533 39.5421
L184.5133 38.5221
" />
<path d="M185.9533 35.0971
L184.5133 34.0771
" />
<path d="M184.5133 38.5221
L180.7033 38.5221
" />
<path d="M184.5133 34.0771
L180.7033 34.0771
" />
<path d="M180.7033 38.5221
L180.7033 37.5246
" />
<path d="M180.7033 35.0746
L178.1533 35.0746
" />
<path d="M180.7033 34.0771
L180.7033 35.0746
" />
<path d="M178.1533 37.5246
L180.7033 37.5246
" />
<path d="M178.1533 35.0746
L178.1533 37.5246
" />
<path d="M179.9529 67.4867
L179.9529 69.9367
" />
<path d="M179.9529 69.9367
L182.5529 69.9367
" />
<path d="M182.5529 66.4892
L188.9029 66.4892
" />
<path d="M182.5529 67.4867
L179.9529 67.4867
" />
<path d="M182.5529 67.4867
L182.5529 66.4892
" />
<path d="M182.5529 69.9367
L182.5529 70.9342
" />
<path d="M182.5529 70.9342
L188.9029 70.9342
" />
<path d="M188.9029 66.4892
L190.3429 67.5092
" />
<path d="M188.9029 70.9342
L190.3429 71.9542
" />
<path d="M190.3429 67.5092
L194.1529 67.5092
" />
<path d="M190.3429 71.9542
L194.1529 71.9542
" />
<path d="M194.1529 67.5092
L194.1529 68.5067
" />
<path d="M194.1529 70.9567
L196.7029 70.9567
" />
<path d="M194.1529 71.9542
L194.1529 70.9567
" />
<path d="M196.7029 68.5067
L194.1529 68.5067
" />
<path d="M196.7029 70.9567
L196.7029 68.5067
" />
<path d="M94.8908 38.5446
L94.8908 36.0946
" />
<path d="M94.8908 36.0946
L92.2908 36.0946
" />
<path d="M92.2908 39.5421
L85.9408 39.5421
" />
<path d="M92.2908 38.5446
L94.8908 38.5446
" />
<path d="M92.2908 38.5446
L92.2908 39.5421
" />
<path d="M92.2908 36.0946
L92.2908 35.0971
" />
<path d="M92.2908 35.0971
L85.9408 35.0971
" />
<path d="M85.9408 39.5421
L84.5008 38.5221
" />
<path d="M85.9408 35.0971
L84.5008 34.0771
" />
<path d="M84.5008 38.5221
L80.6908 38.5221
" />
<path d="M84.5008 34.0771
L80.6908 34.0771
" />
<path d="M80.6908 38.5221
L80.6908 37.5246
" />
<path d="M80.6908 35.0746
L78.1408 35.0746
" />
<path d="M80.6908 34.0771
L80.6908 35.0746
" />
<path d="M78.1408 37.5246
L80.6908 37.5246
" />
<path d="M78.1408 35.0746
L78.1408 37.5246
" />
<path d="M132.3279 67.4867
L132.3279 69.9367
" />
<path d="M132.3279 69.9367
L134.9279 69.9367
" />
<path d="M134.9279 66.4892
L141.2779 66.4892
" />
<path d="M134.9279 67.4867
L132.3279 67.4867
" />
<path d="M134.9279 67.4867
L134.9279 66.4892
" />
<path d="M134.9279 69.9367
L134.9279 70.9342
" />
<path d="M134.9279 70.9342
L141.2779 70.9342
" />
<path d="M141.2779 66.4892
L142.7179 67.5092
" />
<path d="M141.2779 70.9342
L142.7179 71.9542
" />
<path d="M142.7179 67.5092
L146.5279 67.5092
" />
<path d="M142.7179 71.9542
L146.5279 71.9542
" />
<path d="M146.5279 67.5092
L146.5279 68.5067
" />
<path d="M146.5279 70.9567
L149.0779 70.9567
" />
<path d="M146.5279 71.9542
L146.5279 70.9567
" />
<path d="M149.0779 68.5067
L146.5279 68.5067
" />
<path d="M149.0779 70.9567
L149.0779 68.5067
" />
<path d="M37.7408 38.5446
L37.7408 36.0946
" />
<path d="M37.7408 36.0946
L35.1408 36.0946
" />
<path d="M35.1408 39.5421
L28.7908 39.5421
" />
<path d="M35.1408 38.5446
L37.7408 38.5446
" />
<path d="M35.1408 38.5446
L35.1408 39.5421
" />
<path d="M35.1408 36.0946
L35.1408 35.0971
" />
<path d="M35.1408 35.0971
L28.7908 35.0971
" />
<path d="M28.7908 39.5421
L27.3508 38.5221
" />
<path d="M28.7908 35.0971
L27.3508 34.0771
" />
<path d="M27.3508 38.5221
L23.5408 38.5221
" />
<path d="M27.3508 34.0771
L23.5408 34.0771
" />
<path d="M23.5408 38.5221
L23.5408 37.5246
" />
<path d="M23.5408 35.0746
L20.9908 35.0746
" />
<path d="M23.5408 34.0771
L23.5408 35.0746
" />
<path d="M20.9908 37.5246
L23.5408 37.5246
" />
<path d="M20.9908 35.0746
L20.9908 37.5246
" />
<path d="M3.7404 67.4867
L3.7404 69.9367
" />
<path d="M3.7404 69.9367
L6.3404 69.9367
" />
<path d="M6.3404 66.4892
L12.6904 66.4892
" />
<path d="M6.3404 67.4867
L3.7404 67.4867
" />
<path d="M6.3404 67.4867
L6.3404 66.4892
" />
<path d="M6.3404 69.9367
L6.3404 70.9342
" />
<path d="M6.3404 70.9342
L12.6904 70.9342
" />
<path d="M12.6904 66.4892
L14.1304 67.5092
" />
<path d="M12.6904 70.9342
L14.1304 71.9542
" />
<path d="M14.1304 67.5092
L17.9404 67.5092
" />
<path d="M14.1304 71.9542
L17.9404 71.9542
" />
<path d="M17.9404 67.5092
L17.9404 68.5067
" />
<path d="M17.9404 70.9567
L20.4904 70.9567
" />
<path d="M17.9404 71.9542
L17.9404 70.9567
" />
<path d="M20.4904 68.5067
L17.9404 68.5067
" />
<path d="M20.4904 70.9567
L20.4904 68.5067
" />
<path d="M199.0029 67.4867
L199.0029 69.9367
" />
<path d="M199.0029 69.9367
L201.6029 69.9367
" />
<path d="M201.6029 66.4892
L207.9529 66.4892
" />
<path d="M201.6029 67.4867
L199.0029 67.4867
" />
<path d="M201.6029 67.4867
L201.6029 66.4892
" />
<path d="M201.6029 69.9367
L201.6029 70.9342
" />
<path d="M201.6029 70.9342
L207.9529 70.9342
" />
<path d="M207.9529 66.4892
L209.3929 67.5092
" />
<path d="M207.9529 70.9342
L209.3929 71.9542
" />
<path d="M209.3929 67.5092
L213.2029 67.5092
" />
<path d="M209.3929 71.9542
L213.2029 71.9542
" />
<path d="M213.2029 67.5092
L213.2029 68.5067
" />
<path d="M213.2029 70.9567
L215.7529 70.9567
" />
<path d="M213.2029 71.9542
L213.2029 70.9567
" />
<path d="M215.7529 68.5067
L213.2029 68.5067
" />
<path d="M215.7529 70.9567
L215.7529 68.5067
" />
<path d="M20.3031 54.9688
L18.0031 54.9688
" />
<path d="M20.3031 54.9688
L20.3031 50.2687
" />
<path d="M18.0031 50.2687
L18.0031 54.9688
" />
<path d="M20.3031 50.2687
L18.0031 50.2687
" />
<path d="M61.5781 54.9688
L59.2781 54.9688
" />
<path d="M61.5781 54.9688
L61.5781 50.2687
" />
<path d="M59.2781 50.2687
L59.2781 54.9688
" />
<path d="M61.5781 50.2687
L59.2781 50.2687
" />
<path d="M123.0181 68.2400
L123.0181 69.1600
" />
<path d="M123.0181 69.1600
L124.8381 69.1600
" />
<path d="M124.8381 68.2400
L123.0181 68.2400
" />
<path d="M124.8381 69.1600
L124.8381 68.2400
" />
<path d="M144.6062 62.1750
L146.9062 62.1750
" />
<path d="M144.6062 62.1750
L144.6062 66.8750
" />
<path d="M146.9062 66.8750
L146.9062 62.1750
" />
<path d="M144.6062 66.8750
L146.9062 66.8750
" />
<path d="M211.2812 62.1750
L213.5812 62.1750
" />
<path d="M211.2812 62.1750
L211.2812 66.8750
" />
<path d="M213.5812 66.8750
L213.5812 62.1750
" />
<path d="M211.2812 66.8750
L213.5812 66.8750
" />
<path d="M101.7437 62.1750
L104.0437 62.1750
" />
<path d="M101.7437 62.1750
L101.7437 66.8750
" />
<path d="M104.0437 66.8750
L104.0437 62.1750
" />
<path d="M101.7437 66.8750
L104.0437 66.8750
" />
<path d="M273.1937 62.1750
L275.4937 62.1750
" />
<path d="M273.1937 62.1750
L273.1937 66.8750
" />
<path d="M275.4937 66.8750
L275.4937 62.1750
" />
<path d="M273.1937 66.8750
L275.4937 66.8750
" />
<path d="M178.3406 8.2000
L180.6406 8.2000
" />
<path d="M178.3406 8.2000
L178.3406 12.9000
" />
<path d="M180.6406 12.9000
L180.6406 8.2000
" />
<path d="M178.3406 12.9000
L180.6406 12.9000
" />
<path d="M114.7369 57.8944
L115.6569 57.8944
" />
<path d="M115.6569 57.8944
L115.6569 56.0744
" />
<path d="M114.7369 56.0744
L114.7369 57.8944
" />
<path d="M115.6569 56.0744
L114.7369 56.0744
" />
<path d="M118.8319 72.7431
L117.9119 72.7431
" />
<path d="M117.9119 72.7431
L117.9119 74.5631
" />
<path d="M118.8319 74.5631
L118.8319 72.7431
" />
<path d="M117.9119 74.5631
L118.8319 74.5631
" />
<path d="M175.1656 8.2000
L177.4656 8.2000
" />
<path d="M175.1656 8.2000
L175.1656 12.9000
" />
<path d="M177.4656 12.9000
L177.4656 8.2000
" />
<path d="M175.1656 12.9000
L177.4656 12.9000
" />
<path d="M116.0919 20.1456
L116.0919 22.3856
" />
<path d="M116.0919 22.3856
L120.6519 22.3856
" />
<path d="M120.6519 20.1456
L116.0919 20.1456
" />
<path d="M120.6519 22.3856
L120.6519 20.1456
" />
<path d="M215.5656 54.9688
L213.2656 54.9688
" />
<path d="M215.5656 54.9688
L215.5656 50.2687
" />
<path d="M213.2656 50.2687
L213.2656 54.9688
" />
<path d="M215.5656 50.2687
L213.2656 50.2687
" />
<path d="M120.4219 26.1406
L116.3219 26.1406
" />
<path d="M120.4219 22.7406
L120.4219 26.1406
" />
<path d="M116.3219 26.1406
L116.3219 22.7406
" />
<path d="M116.3219 22.7406
L120.4219 22.7406
" />
<path d="M136.3044 62.4044
L135.3644 62.4044
" />
<path d="M135.3644 62.4044
L135.3644 64.2644
" />
<path d="M136.3044 64.2644
L136.3044 62.4044
" />
<path d="M135.3644 64.2644
L136.3044 64.2644
" />
<path d="M122.4919 71.8200
L114.2519 71.8200
" />
<path d="M122.4919 63.5800
L122.4919 71.8200
" />
<path d="M114.2519 71.8200
L114.2519 63.5800
" />
<path d="M114.2519 63.5800
L122.4919 63.5800
" />
<path d="M116.6925 62.2800
L117.6325 62.2800
" />
<path d="M117.6325 62.2800
L117.6325 60.4200
" />
<path d="M116.6925 60.4200
L116.6925 62.2800
" />
<path d="M117.6325 60.4200
L116.6925 60.4200
" />
<path d="M101.3794 62.4044
L100.4394 62.4044
" />
<path d="M100.4394 62.4044
L100.4394 64.2644
" />
<path d="M101.3794 64.2644
L101.3794 62.4044
" />
<path d="M100.4394 64.2644
L101.3794 64.2644
" />
<path d="M240.2531 22.4875
L242.5531 22.4875
" />
<path d="M240.2531 22.4875
L240.2531 27.1875
" />
<path d="M242.5531 27.1875
L242.5531 22.4875
" />
<path d="M240.2531 27.1875
L242.5531 27.1875
" />
<path d="M23.4781 54.9688
L21.1781 54.9688
" />
<path d="M23.4781 54.9688
L23.4781 50.2687
" />
<path d="M21.1781 50.2687
L21.1781 54.9688
" />
<path d="M23.4781 50.2687
L21.1781 50.2687
" />
<path d="M136.8031 64.4094
L142.8031 64.4094
" />
<path d="M142.8031 64.4094
L142.8031 55.9094
" />
<path d="M136.8031 55.9094
L136.8031 64.4094
" />
<path d="M142.8031 55.9094
L136.8031 55.9094
" />
<path d="M242.5531 16.8687
L240.2531 16.8687
" />
<path d="M242.5531 16.8687
L242.5531 12.1687
" />
<path d="M240.2531 12.1687
L240.2531 16.8687
" />
<path d="M242.5531 12.1687
L240.2531 12.1687
" />
<path d="M178.3406 27.2500
L180.6406 27.2500
" />
<path d="M178.3406 27.2500
L178.3406 31.9500
" />
<path d="M180.6406 31.9500
L180.6406 27.2500
" />
<path d="M178.3406 31.9500
L180.6406 31.9500
" />
<path d="M56.1031 8.2000
L58.4031 8.2000
" />
<path d="M56.1031 8.2000
L56.1031 12.9000
" />
<path d="M58.4031 12.9000
L58.4031 8.2000
" />
<path d="M56.1031 12.9000
L58.4031 12.9000
" />
<path d="M113.1306 62.2600
L114.0506 62.2600
" />
<path d="M114.0506 62.2600
L114.0506 60.4400
" />
<path d="M113.1306 60.4400
L113.1306 62.2600
" />
<path d="M114.0506 60.4400
L113.1306 60.4400
" />
<path d="M73.1688 62.1750
L75.4688 62.1750
" />
<path d="M73.1688 62.1750
L73.1688 66.8750
" />
<path d="M75.4688 66.8750
L75.4688 62.1750
" />
<path d="M73.1688 66.8750
L75.4688 66.8750
" />
<path d="M258.4281 59.7312
L256.1281 59.7312
" />
<path d="M258.4281 59.7312
L258.4281 55.0312
" />
<path d="M256.1281 55.0312
L256.1281 59.7312
" />
<path d="M258.4281 55.0312
L256.1281 55.0312
" />
<path d="M265.9656 31.0594
L251.7656 31.0594
" />
<path d="M265.9656 31.0594
L265.9656 13.5594
" />
<path d="M251.7656 13.5594
L251.7656 31.0594
" />
<path d="M251.7656 13.5594
L265.9656 13.5594
" />
<path d="M242.5531 21.6312
L240.2531 21.6312
" />
<path d="M242.5531 21.6312
L242.5531 16.9312
" />
<path d="M240.2531 16.9312
L240.2531 21.6312
" />
<path d="M242.5531 16.9312
L240.2531 16.9312
" />
<path d="M235.0938 62.1750
L237.3937 62.1750
" />
<path d="M235.0938 62.1750
L235.0938 66.8750
" />
<path d="M237.3937 66.8750
L237.3937 62.1750
" />
<path d="M235.0938 66.8750
L237.3937 66.8750
" />
<path d="M115.5019 62.2800
L116.4419 62.2800
" />
<path d="M116.4419 62.2800
L116.4419 60.4200
" />
<path d="M115.5019 60.4200
L115.5019 62.2800
" />
<path d="M116.4419 60.4200
L115.5019 60.4200
" />
<path d="M135.1137 62.4044
L134.1737 62.4044
" />
<path d="M134.1737 62.4044
L134.1737 64.2644
" />
<path d="M135.1137 64.2644
L135.1137 62.4044
" />
<path d="M134.1737 64.2644
L135.1137 64.2644
" />
<path d="M121.8275 25.9650
L121.8275 26.8850
" />
<path d="M121.8275 26.8850
L123.6475 26.8850
" />
<path d="M123.6475 25.9650
L121.8275 25.9650
" />
<path d="M123.6475 26.8850
L123.6475 25.9650
" />
<path d="M180.6406 54.9688
L178.3406 54.9688
" />
<path d="M180.6406 54.9688
L180.6406 50.2687
" />
<path d="M178.3406 50.2687
L178.3406 54.9688
" />
<path d="M180.6406 50.2687
L178.3406 50.2687
" />
<path d="M137.0656 27.2500
L139.3656 27.2500
" />
<path d="M137.0656 27.2500
L137.0656 31.9500
" />
<path d="M139.3656 31.9500
L139.3656 27.2500
" />
<path d="M137.0656 31.9500
L139.3656 31.9500
" />
<path d="M111.5463 59.9375
L112.1969 59.2869
" />
<path d="M112.1969 59.2869
L110.9099 58.0000
" />
<path d="M110.2594 58.6506
L111.5463 59.9375
" />
<path d="M110.9099 58.0000
L110.2594 58.6506
" />
<path d="M175.1656 27.2500
L177.4656 27.2500
" />
<path d="M175.1656 27.2500
L175.1656 31.9500
" />
<path d="M177.4656 31.9500
L177.4656 27.2500
" />
<path d="M175.1656 31.9500
L177.4656 31.9500
" />
<path d="M59.2781 8.2000
L61.5781 8.2000
" />
<path d="M59.2781 8.2000
L59.2781 12.9000
" />
<path d="M61.5781 12.9000
L61.5781 8.2000
" />
<path d="M59.2781 12.9000
L61.5781 12.9000
" />
<path d="M218.7406 54.9688
L216.4406 54.9688
" />
<path d="M218.7406 54.9688
L218.7406 50.2687
" />
<path d="M216.4406 50.2687
L216.4406 54.9688
" />
<path d="M218.7406 50.2687
L216.4406 50.2687
" />
<path d="M156.1156 8.2000
L158.4156 8.2000
" />
<path d="M156.1156 8.2000
L156.1156 12.9000
" />
<path d="M158.4156 12.9000
L158.4156 8.2000
" />
<path d="M156.1156 12.9000
L158.4156 12.9000
" />
<path d="M99.9406 55.9094
L93.9406 55.9094
" />
<path d="M93.9406 55.9094
L93.9406 64.4094
" />
<path d="M99.9406 64.4094
L99.9406 55.9094
" />
<path d="M93.9406 64.4094
L99.9406 64.4094
" />
<path d="M213.2656 27.2500
L215.5656 27.2500
" />
<path d="M213.2656 27.2500
L213.2656 31.9500
" />
<path d="M215.5656 31.9500
L215.5656 27.2500
" />
<path d="M213.2656 31.9500
L215.5656 31.9500
" />
<path d="M139.3656 54.9688
L137.0656 54.9688
" />
<path d="M139.3656 54.9688
L139.3656 50.2687
" />
<path d="M137.0656 50.2687
L137.0656 54.9688
" />
<path d="M139.3656 50.2687
L137.0656 50.2687
" />
<path d="M18.0031 8.2000
L20.3031 8.2000
" />
<path d="M18.0031 8.2000
L18.0031 12.9000
" />
<path d="M20.3031 12.9000
L20.3031 8.2000
" />
<path d="M18.0031 12.9000
L20.3031 12.9000
" />
<path d="M115.8544 11.6675
L115.8544 12.6075
" />
<path d="M115.8544 12.6075
L117.7144 12.6075
" />
<path d="M117.7144 11.6675
L115.8544 11.6675
" />
<path d="M117.7144 12.6075
L117.7144 11.6675
" />
<path d="M121.0375 25.5669
L121.0375 21.7269
" />
<path d="M124.4375 25.5669
L121.0375 25.5669
" />
<path d="M121.0375 21.7269
L124.4375 21.7269
" />
<path d="M124.4375 21.7269
L124.4375 25.5669
" />
<path d="M113.0519 1.6375
L123.6919 1.6375
" />
<path d="M113.0519 11.0575
L113.0519 1.6375
" />
<path d="M113.0519 11.0575
L123.6919 11.0575
" />
<path d="M123.6919 11.0575
L123.6919 1.6375
" />
<path d="M232.3156 8.2000
L234.6156 8.2000
" />
<path d="M232.3156 8.2000
L232.3156 12.9000
" />
<path d="M234.6156 12.9000
L234.6156 8.2000
" />
<path d="M232.3156 12.9000
L234.6156 12.9000
" />
<path d="M117.6412 72.7431
L116.7212 72.7431
" />
<path d="M116.7212 72.7431
L116.7212 74.5631
" />
<path d="M117.6412 74.5631
L117.6412 72.7431
" />
<path d="M116.7212 74.5631
L117.6412 74.5631
" />
<path d="M158.4156 54.9688
L156.1156 54.9688
" />
<path d="M158.4156 54.9688
L158.4156 50.2687
" />
<path d="M156.1156 50.2687
L156.1156 54.9688
" />
<path d="M158.4156 50.2687
L156.1156 50.2687
" />
<path d="M119.2819 80.4631
L119.2819 79.5431
" />
<path d="M119.2819 79.5431
L117.4619 79.5431
" />
<path d="M117.4619 80.4631
L119.2819 80.4631
" />
<path d="M117.4619 79.5431
L117.4619 80.4631
" />
<path d="M121.8275 20.4087
L121.8275 21.3287
" />
<path d="M121.8275 21.3287
L123.6475 21.3287
" />
<path d="M123.6475 20.4087
L121.8275 20.4087
" />
<path d="M123.6475 21.3287
L123.6475 20.4087
" />
<path d="M56.1031 27.2500
L58.4031 27.2500
" />
<path d="M56.1031 27.2500
L56.1031 31.9500
" />
<path d="M58.4031 31.9500
L58.4031 27.2500
" />
<path d="M56.1031 31.9500
L58.4031 31.9500
" />
<path d="M115.5206 78.1550
L116.4606 78.1550
" />
<path d="M116.4606 78.1550
L116.4606 76.2950
" />
<path d="M115.5206 76.2950
L115.5206 78.1550
" />
<path d="M116.4606 76.2950
L115.5206 76.2950
" />
<path d="M94.2031 8.2000
L96.5031 8.2000
" />
<path d="M94.2031 8.2000
L94.2031 12.9000
" />
<path d="M96.5031 12.9000
L96.5031 8.2000
" />
<path d="M94.2031 12.9000
L96.5031 12.9000
" />
<path d="M137.0656 8.2000
L139.3656 8.2000
" />
<path d="M137.0656 8.2000
L137.0656 12.9000
" />
<path d="M139.3656 12.9000
L139.3656 8.2000
" />
<path d="M137.0656 12.9000
L139.3656 12.9000
" />
<path d="M117.8931 62.6569
L118.8131 62.6569
" />
<path d="M118.8131 62.6569
L118.8131 60.8369
" />
<path d="M117.8931 60.8369
L117.8931 62.6569
" />
<path d="M118.8131 60.8369
L117.8931 60.8369
" />
<path d="M21.1781 8.2000
L23.4781 8.2000
" />
<path d="M21.1781 8.2000
L21.1781 12.9000
" />
<path d="M23.4781 12.9000
L23.4781 8.2000
" />
<path d="M21.1781 12.9000
L23.4781 12.9000
" />
<path d="M156.1156 27.2500
L158.4156 27.2500
" />
<path d="M156.1156 27.2500
L156.1156 31.9500
" />
<path d="M158.4156 31.9500
L158.4156 27.2500
" />
<path d="M156.1156 31.9500
L158.4156 31.9500
" />
<path d="M254.1437 62.1750
L256.4437 62.1750
" />
<path d="M254.1437 62.1750
L254.1437 66.8750
" />
<path d="M256.4437 66.8750
L256.4437 62.1750
" />
<path d="M254.1437 66.8750
L256.4437 66.8750
" />
<path d="M18.0031 27.2500
L20.3031 27.2500
" />
<path d="M18.0031 27.2500
L18.0031 31.9500
" />
<path d="M20.3031 31.9500
L20.3031 27.2500
" />
<path d="M18.0031 31.9500
L20.3031 31.9500
" />
<path d="M96.5031 54.9688
L94.2031 54.9688
" />
<path d="M96.5031 54.9688
L96.5031 50.2687
" />
<path d="M94.2031 50.2687
L94.2031 54.9688
" />
<path d="M96.5031 50.2687
L94.2031 50.2687
" />
<path d="M114.3212 62.2600
L115.2412 62.2600
" />
<path d="M115.2412 62.2600
L115.2412 60.4400
" />
<path d="M114.3212 60.4400
L114.3212 62.2600
" />
<path d="M115.2412 60.4400
L114.3212 60.4400
" />
<path d="M21.1781 27.2500
L23.4781 27.2500
" />
<path d="M21.1781 27.2500
L21.1781 31.9500
" />
<path d="M23.4781 31.9500
L23.4781 27.2500
" />
<path d="M21.1781 31.9500
L23.4781 31.9500
" />
<path d="M16.0188 62.1750
L18.3187 62.1750
" />
<path d="M16.0188 62.1750
L16.0188 66.8750
" />
<path d="M18.3187 66.8750
L18.3187 62.1750
" />
<path d="M16.0188 66.8750
L18.3187 66.8750
" />
<path d="M121.7688 62.0651
L122.4193 62.7156
" />
<path d="M122.4193 62.7156
L123.7062 61.4287
" />
<path d="M123.0557 60.7781
L121.7688 62.0651
" />
<path d="M123.7062 61.4287
L123.0557 60.7781
" />
<path d="M132.9831 64.2644
L133.9231 64.2644
" />
<path d="M133.9231 64.2644
L133.9231 62.4044
" />
<path d="M132.9831 62.4044
L132.9831 64.2644
" />
<path d="M133.9231 62.4044
L132.9831 62.4044
" />
<path d="M192.2312 62.1750
L194.5312 62.1750
" />
<path d="M192.2312 62.1750
L192.2312 66.8750
" />
<path d="M194.5312 66.8750
L194.5312 62.1750
" />
<path d="M192.2312 66.8750
L194.5312 66.8750
" />
<path d="M97.3781 8.2000
L99.6781 8.2000
" />
<path d="M97.3781 8.2000
L97.3781 12.9000
" />
<path d="M99.6781 12.9000
L99.6781 8.2000
" />
<path d="M97.3781 12.9000
L99.6781 12.9000
" />
<path d="M97.3781 27.2500
L99.6781 27.2500
" />
<path d="M97.3781 27.2500
L97.3781 31.9500
" />
<path d="M99.6781 31.9500
L99.6781 27.2500
" />
<path d="M97.3781 31.9500
L99.6781 31.9500
" />
<path d="M177.4656 54.9688
L175.1656 54.9688
" />
<path d="M177.4656 54.9688
L177.4656 50.2687
" />
<path d="M175.1656 50.2687
L175.1656 54.9688
" />
<path d="M177.4656 50.2687
L175.1656 50.2687
" />
<path d="M113.7256 69.1600
L113.7256 68.2400
" />
<path d="M113.7256 68.2400
L111.9056 68.2400
" />
<path d="M111.9056 69.1600
L113.7256 69.1600
" />
<path d="M111.9056 68.2400
L111.9056 69.1600
" />
<path d="M58.4031 54.9688
L56.1031 54.9688
" />
<path d="M58.4031 54.9688
L58.4031 50.2687
" />
<path d="M56.1031 50.2687
L56.1031 54.9688
" />
<path d="M58.4031 50.2687
L56.1031 50.2687
" />
<path d="M35.0688 62.1750
L37.3687 62.1750
" />
<path d="M35.0688 62.1750
L35.0688 66.8750
" />
<path d="M37.3687 66.8750
L37.3687 62.1750
" />
<path d="M35.0688 66.8750
L37.3687 66.8750
" />
<path d="M235.4906 8.2000
L237.7906 8.2000
" />
<path d="M235.4906 8.2000
L235.4906 12.9000
" />
<path d="M237.7906 12.9000
L237.7906 8.2000
" />
<path d="M235.4906 12.9000
L237.7906 12.9000
" />
<path d="M121.2131 76.3150
L120.2931 76.3150
" />
<path d="M120.2931 76.3150
L120.2931 78.1350
" />
<path d="M121.2131 78.1350
L121.2131 76.3150
" />
<path d="M120.2931 78.1350
L121.2131 78.1350
" />
<path d="M59.2781 27.2500
L61.5781 27.2500
" />
<path d="M59.2781 27.2500
L59.2781 31.9500
" />
<path d="M61.5781 31.9500
L61.5781 27.2500
" />
<path d="M59.2781 31.9500
L61.5781 31.9500
" />
<path d="M120.8894 12.6075
L120.8894 11.6675
" />
<path d="M120.8894 11.6675
L119.0294 11.6675
" />
<path d="M119.0294 12.6075
L120.8894 12.6075
" />
<path d="M119.0294 11.6675
L119.0294 12.6075
" />
<path d="M121.6287 50.7469
L121.6287 60.0469
" />
<path d="M115.9087 50.7469
L121.6287 50.7469
" />
<path d="M121.6287 60.0469
L115.9087 60.0469
" />
<path d="M115.9087 60.0469
L115.9087 50.7469
" />
<path d="M94.2031 27.2500
L96.5031 27.2500
" />
<path d="M94.2031 27.2500
L94.2031 31.9500
" />
<path d="M96.5031 31.9500
L96.5031 27.2500
" />
<path d="M94.2031 31.9500
L96.5031 31.9500
" />
<path d="M99.6781 54.9688
L97.3781 54.9688
" />
<path d="M99.6781 54.9688
L99.6781 50.2687
" />
<path d="M97.3781 50.2687
L97.3781 54.9688
" />
<path d="M99.6781 50.2687
L97.3781 50.2687
" />
<path d="M271.9469 56.8156
L275.9469 56.8156
" />
<path d="M275.9469 56.8156
L275.9469 49.2156
" />
<path d="M271.9469 49.2156
L271.9469 56.8156
" />
<path d="M275.9469 49.2156
L271.9469 49.2156
" />
<path d="M116.6719 79.3250
L116.6719 75.1250
" />
<path d="M120.0719 79.3250
L116.6719 79.3250
" />
<path d="M116.6719 75.1250
L120.0719 75.1250
" />
<path d="M120.0719 75.1250
L120.0719 79.3250
" />
<path d="M54.1187 62.1750
L56.4187 62.1750
" />
<path d="M54.1187 62.1750
L54.1187 66.8750
" />
<path d="M56.4187 66.8750
L56.4187 62.1750
" />
<path d="M54.1187 66.8750
L56.4187 66.8750
" />
<path d="M173.1813 62.1750
L175.4812 62.1750
" />
<path d="M173.1813 62.1750
L173.1813 66.8750
" />
<path d="M175.4812 66.8750
L175.4812 62.1750
" />
<path d="M173.1813 66.8750
L175.4812 66.8750
" />
<path d="M216.4406 27.2500
L218.7406 27.2500
" />
<path d="M216.4406 27.2500
L216.4406 31.9500
" />
<path d="M218.7406 31.9500
L218.7406 27.2500
" />
<path d="M216.4406 31.9500
L218.7406 31.9500
" />
<path d="M240.2531 27.2500
L242.5531 27.2500
" />
<path d="M240.2531 27.2500
L240.2531 31.9500
" />
<path d="M242.5531 31.9500
L242.5531 27.2500
" />
<path d="M240.2531 31.9500
L242.5531 31.9500
" />
<g >
</g>
<g >
</g>
<g >
</g>
<g >
</g>
<g >
</g>
<g >
</g>
<g >
</g>
<g >
</g>
<g >
</g>
<g >
</g>
<g >
</g>
<g >
</g>
<g >
</g>
<g >
</g>
<g >
</g>
<g >
</g>
<g >
</g>
<g >
</g>
<g >
</g>
<g >
</g>
<g >
</g>
<g >
</g>
<g >
</g>
<g >
</g>
<g >
</g>
<g >
</g>
<g >
</g>
<g >
</g>
<g >
</g>
<g >
</g>
<g >
</g>
<g >
</g>
<g >
</g>
<g >
</g>
<g >
</g>
<g >
</g>
<g >
</g>
<g >
</g>
<g >
</g>
<g >
</g>
<g >
</g>
<g >
</g>
<g >
</g>
<g >
</g>
<g >
</g>
<g >
</g>
<g >
</g>
<g >
</g>
<g >
</g>
<g >
</g>
<g >
</g>
<g >
</g>
<g >
</g>
<g >
</g>
<g >
</g>
<g >
</g>
<g >
</g>
<g >
</g>
<g >
</g>
<g >
</g>
<g >
</g>
<g >
</g>
<g >
</g>
<g >
</g>
<g >
</g>
<g >
</g>
<g >
</g>
<g >
</g>
<g >
</g>
<g >
</g>
<g >
</g>
<g >
</g>
<g >
</g>
<g >
</g>
<g >
</g>
<g >
</g>
<g >
</g>
<g >
</g>
<g >
</g>
<g >
</g>
<g >
</g>
<g >
</g>
<g >
</g>
<g >
</g>
<g >
</g>
<g >
</g>
<g >
</g>
<g >
</g>
<g >
</g>
<g >
</g>
<g >
</g>
<g >
</g>
<g >
</g>
<g >
</g>
<g >
</g>
<g >
</g>
<g >
</g>
<g >
</g>
<g >
</g>
<g >
</g>
<g >
</g>
<g >
</g>
<g >
</g>
<g >
</g>
<g >
</g>
<g >
</g>
<g >
</g>
<g >
</g>
<g >
</g>
<g >
</g>
<g >
</g>
<g >
</g>
<g >
</g>
<g >
</g>
<g >
</g>
<g >
</g>
<g >
</g>
<g >
</g>
<g >
</g>
<g >
</g>
<g >
</g>
<g >
</g>
<g >
</g>
<g >
</g>
<g >
</g>
<g >
</g>
<g >
</g>
<g >
</g>
<g >
</g>
<g >
</g>
<g >
</g>
<g >
</g>
<g >
</g>
<g >
</g>
<g >
</g>
<g >
</g>
<g >
</g>
<g >
</g>
<g >
</g>
<g >
</g>
<g >
</g>
<g >
</g>
<g >
</g>
<g >
</g>
<g >
</g>
<g >
</g>
<g >
</g>
<g >
</g>
<g >
</g>
<g >
</g>
</g>
<g style="fill:#000000; fill-opacity:0.0; 
stroke:#000000; stroke-width:0.0500; stroke-opacity:1; 
stroke-linecap:round; stroke-linejoin:round;">
</g>
<g style="fill:#D0D2CD; fill-opacity:0.0; 
stroke:#D0D2CD; stroke-width:0.0500; stroke-opacity:1; 
stroke-linecap:round; stroke-linejoin:round;">
</g>
<g style="fill:#D0D2CD; fill-opacity:0.0; 
stroke:#D0D2CD; stroke-width:0.1000; stroke-opacity:1; 
stroke-linecap:round; stroke-linejoin:round;">
<path d="M61.6187 80.7969 A2.7781 2.7781 0.0 0 0 56.0625 80.7969" />
<path d="M2.4844 35.9500
L2.4844 6.9781
" />
<path d="M253.7062 83.1781 A2.3813 2.3813 0.0 0 0 256.0875 80.7969" />
<path d="M5.6594 3.8031
L72.7313 3.8031
" />
<path d="M277.1219 6.9781
L277.1219 80.0031
" />
<path d="M172.7437 83.1781 A2.3813 2.3813 0.0 0 0 175.1250 80.7969" />
<path d="M53.6812 83.1781 A2.3813 2.3813 0.0 0 0 56.0625 80.7969" />
<path d="M4.8656 43.8875 A2.7781 2.7781 0.0 0 0 4.8656 38.3313" />
<path d="M221.1625 3.8031
L273.9469 3.8031
" />
<path d="M221.1625 3.8031 A2.3813 2.3813 0.0 0 0 218.7813 6.1844" />
<path d="M5.6594 3.8031 A3.1750 3.1750 0.0 0 0 2.4844 6.9781" />
<path d="M273.9469 83.1782 A3.1750 3.1750 0.0 0 0 277.1219 80.0031" />
<path d="M253.7062 83.1781
L183.0625 83.1781
" />
<path d="M2.4844 80.0031 A3.1750 3.1750 0.0 0 0 5.6594 83.1781" />
<path d="M83.0500 3.8031
L210.8438 3.8031
" />
<path d="M53.6812 83.1781
L5.6594 83.1781
" />
<path d="M261.6437 80.7969 A2.7781 2.7781 0.0 0 0 256.0875 80.7969" />
<path d="M75.1124 6.1844 A2.3812 2.3812 0.0 0 0 72.7312 3.8031" />
<path d="M180.6813 80.7969 A2.3813 2.3813 0.0 0 0 183.0625 83.1781" />
<path d="M261.6438 80.7969 A2.3813 2.3813 0.0 0 0 264.0250 83.1781" />
<path d="M2.4844 80.0031
L2.4844 46.2687
" />
<path d="M2.4843 35.9500 A2.3813 2.3813 0.0 0 0 4.8656 38.3313" />
<path d="M64.0000 83.1781
L172.7438 83.1781
" />
<path d="M213.2249 6.1844 A2.3812 2.3812 0.0 0 0 210.8437 3.8031" />
<path d="M180.6812 80.7969 A2.7781 2.7781 0.0 0 0 175.1250 80.7969" />
<path d="M75.1125 6.1844 A2.7781 2.7781 0.0 0 0 80.6688 6.1844" />
<path d="M4.8656 43.8875 A2.3813 2.3813 0.0 0 0 2.4844 46.2687" />
<path d="M61.6188 80.7969 A2.3813 2.3813 0.0 0 0 64.0000 83.1781" />
<path d="M83.0500 3.8031 A2.3813 2.3813 0.0 0 0 80.6688 6.1844" />
<path d="M264.0250 83.1781
L273.9469 83.1781
" />
<path d="M213.2250 6.1844 A2.7781 2.7781 0.0 0 0 218.7812 6.1844" />
<path d="M277.1218 6.9781 A3.1750 3.1750 0.0 0 0 273.9469 3.8031" />
<path d="M274.6497 54.7156
L273.2440 54.7156
" />
<path d="M272.4469 53.8101
L272.4469 52.2212
" />
<path d="M275.4469 52.2212
L275.4469 53.8101
" />
<path d="M273.2440 51.3156
L274.6497 51.3156
" />
<path d="M273.2440 54.7156 A0.5000 0.5000 0.0 0 0 273.0272 54.7651" />
<path d="M272.3786 54.0623 A0.5000 0.5000 0.0 0 0 273.0272 54.7651" />
<path d="M274.8666 54.7651 A0.5000 0.5000 0.0 0 0 274.6497 54.7156" />
<path d="M274.8666 54.7651 A0.5000 0.5000 0.0 0 0 275.5152 54.0623" />
<path d="M275.4469 53.8101 A0.5000 0.5000 0.0 0 0 275.5152 54.0623" />
<path d="M272.3786 54.0623 A0.5000 0.5000 0.0 0 0 272.4469 53.8101" />
<path d="M275.5152 51.9689 A0.5000 0.5000 0.0 0 0 275.4469 52.2212" />
<path d="M272.4469 52.2212 A0.5000 0.5000 0.0 0 0 272.3786 51.9689" />
<path d="M273.0272 51.2661 A0.5000 0.5000 0.0 0 0 272.3786 51.9689" />
<path d="M273.0272 51.2661 A0.5004 0.5004 0.0 0 0 273.2440 51.3156" />
<path d="M275.5152 51.9689 A0.5000 0.5000 0.0 0 0 274.8666 51.2661" />
<path d="M274.6497 51.3156 A0.5005 0.5005 0.0 0 0 274.8666 51.2661" />
<g >
</g>
<g >
</g>
<g >
</g>
<g >
</g>
<g >
</g>
<g >
</g>
<g >
</g>
<g >
</g>
<g >
</g>
<g >
</g>
<g >
</g>
<g >
</g>
<g >
</g>
<g >
</g>
<g >
</g>
<g >
</g>
<g >
</g>
<g >
</g>
<g >
</g>
<g >
</g>
<g >
</g>
<g >
</g>
<g >
</g>
<g >
</g>
<g >
</g>
<g >
</g>
<g >
</g>
<g >
</g>
<g >
</g>
<g >
</g>
<g >
</g>
<g >
</g>
<g >
</g>
<g >
</g>
<g >
</g>
<g >
</g>
<g >
</g>
<g >
</g>
<g >
</g>
<g >
</g>
<g >
</g>
<g >
</g>
<g >
</g>
<g >
</g>
<g >
</g>
<g >
</g>
<g >
</g>
<g >
</g>
<g >
</g>
<g >
</g>
<g >
</g>
<g >
</g>
<g >
</g>
<g >
</g>
<g >
</g>
<g >
</g>
<g >
</g>
<g >
</g>
<g >
</g>
<g >
</g>
<g >
</g>
<g >
</g>
<g >
</g>
<g >
</g>
<g >
</g>
<g >
</g>
<g >
</g>
<g >
</g>
<g >
</g>
<g >
</g>
<g >
</g>
<g >
</g>
<g >
</g>
<g >
</g>
<g >
</g>
<g >
</g>
<g >
</g>
<g >
</g>
<g >
</g>
<g >
</g>
<g >
</g>
<g >
</g>
<g >
</g>
<g >
</g>
<g >
</g>
<g >
</g>
<g >
</g>
<g >
</g>
<g >
</g>
<g >
</g>
<g >
</g>
<g >
</g>
<g >
</g>
<g >
</g>
<g >
</g>
<g >
</g>
<g >
</g>
<g >
</g>
<g >
</g>
<g >
</g>
<g >
</g>
<g >
</g>
<g >
</g>
<g >
</g>
<g >
</g>
<g >
</g>
<g >
</g>
<g >
</g>
<g >
</g>
<g >
</g>
<g >
</g>
<g >
</g>
<g >
</g>
<g >
</g>
<g >
</g>
<g >
</g>
<g >
</g>
<g >
</g>
<g >
</g>
<g >
</g>
<g >
</g>
<g >
</g>
<g >
</g>
<g >
</g>
<g >
</g>
<g >
</g>
<g >
</g>
<g >
</g>
<g >
</g>
<g >
</g>
<g >
</g>
<g >
</g>
<g >
</g>
<g >
</g>
<g >
</g>
<g >
</g>
<g >
</g>
<g >
</g>
<g >
</g>
<g >
</g>
<g >
</g>
<g >
</g>
<g >
</g>
<g >
</g>
<g >
</g>
<g >
</g>
<g >
</g>
<g >
</g>
<g >
</g>
<g >
</g>
</g> 
</svg>
