<?xml version="1.0" standalone="no"?>
 <!DOCTYPE svg PUBLIC "-//W3C//DTD SVG 1.1//EN" 
 "http://www.w3.org/Graphics/SVG/1.1/DTD/svg11.dtd"> 
<svg
  xmlns:svg="http://www.w3.org/2000/svg"
  xmlns="http://www.w3.org/2000/svg"
  xmlns:xlink="http://www.w3.org/1999/xlink"
  version="1.1"
  width="278.3078mm" height="199.2122mm" viewBox="0.0000 0.0000 278.3078 199.2122">
<title>SVG Image created as HS_KS-SLD_MX-F_Courtyard.svg date 2023/11/05 22:51:30 </title>
  <desc>Image generated by PCBNEW </desc>
<g style="fill:#000000; fill-opacity:1.0000;stroke:#000000; stroke-opacity:1.0000;
stroke-linecap:round; stroke-linejoin:round;"
 transform="translate(0 0) scale(1 1)">
</g>
<g style="fill:#000000; fill-opacity:0.0; 
stroke:#000000; stroke-width:0.0000; stroke-opacity:1; 
stroke-linecap:round; stroke-linejoin:round;">
</g>
<g style="fill:#FF26E2; fill-opacity:0.0; 
stroke:#FF26E2; stroke-width:0.0000; stroke-opacity:1; 
stroke-linecap:round; stroke-linejoin:round;">
</g>
<g style="fill:#FF26E2; fill-opacity:0.0; 
stroke:#FF26E2; stroke-width:0.0500; stroke-opacity:1; 
stroke-linecap:round; stroke-linejoin:round;">
<path d="M232.5281 38.5844
L232.5281 24.5844
" />
<path d="M232.5281 24.5844
L218.5281 24.5844
" />
<path d="M218.5281 38.5844
L232.5281 38.5844
" />
<path d="M218.5281 24.5844
L218.5281 38.5844
" />
<path d="M80.4156 43.6344
L80.4156 57.6344
" />
<path d="M80.4156 57.6344
L94.4156 57.6344
" />
<path d="M94.4156 43.6344
L80.4156 43.6344
" />
<path d="M94.4156 57.6344
L94.4156 43.6344
" />
<path d="M75.3656 38.5844
L75.3656 24.5844
" />
<path d="M75.3656 24.5844
L61.3656 24.5844
" />
<path d="M61.3656 38.5844
L75.3656 38.5844
" />
<path d="M61.3656 24.5844
L61.3656 38.5844
" />
<path d="M89.9406 67.4469
L89.9406 81.4469
" />
<path d="M89.9406 81.4469
L103.9406 81.4469
" />
<path d="M103.9406 67.4469
L89.9406 67.4469
" />
<path d="M103.9406 81.4469
L103.9406 67.4469
" />
<path d="M242.3406 67.4469
L242.3406 81.4469
" />
<path d="M242.3406 81.4469
L256.3406 81.4469
" />
<path d="M256.3406 67.4469
L242.3406 67.4469
" />
<path d="M256.3406 81.4469
L256.3406 67.4469
" />
<circle cx="39.7906" cy="6.1844" r="2.4500" /> 
<path d="M56.3156 19.5344
L56.3156 5.5344
" />
<path d="M56.3156 5.5344
L42.3156 5.5344
" />
<path d="M42.3156 19.5344
L56.3156 19.5344
" />
<path d="M42.3156 5.5344
L42.3156 19.5344
" />
<path d="M123.2781 43.6344
L123.2781 57.6344
" />
<path d="M123.2781 57.6344
L137.2781 57.6344
" />
<path d="M137.2781 43.6344
L123.2781 43.6344
" />
<path d="M137.2781 57.6344
L137.2781 43.6344
" />
<path d="M161.3781 43.6344
L161.3781 57.6344
" />
<path d="M161.3781 57.6344
L175.3781 57.6344
" />
<path d="M175.3781 43.6344
L161.3781 43.6344
" />
<path d="M175.3781 57.6344
L175.3781 43.6344
" />
<path d="M175.3781 19.5344
L175.3781 5.5344
" />
<path d="M175.3781 5.5344
L161.3781 5.5344
" />
<path d="M161.3781 19.5344
L175.3781 19.5344
" />
<path d="M161.3781 5.5344
L161.3781 19.5344
" />
<path d="M156.3281 38.5844
L156.3281 24.5844
" />
<path d="M156.3281 24.5844
L142.3281 24.5844
" />
<path d="M142.3281 38.5844
L156.3281 38.5844
" />
<path d="M142.3281 24.5844
L142.3281 38.5844
" />
<path d="M218.5281 43.6344
L218.5281 57.6344
" />
<path d="M218.5281 57.6344
L232.5281 57.6344
" />
<path d="M232.5281 43.6344
L218.5281 43.6344
" />
<path d="M232.5281 57.6344
L232.5281 43.6344
" />
<path d="M99.4656 43.6344
L99.4656 57.6344
" />
<path d="M99.4656 57.6344
L113.4656 57.6344
" />
<path d="M113.4656 43.6344
L99.4656 43.6344
" />
<path d="M113.4656 57.6344
L113.4656 43.6344
" />
<path d="M261.3906 5.5344
L261.3906 19.5344
" />
<path d="M261.3906 19.5344
L275.3906 19.5344
" />
<path d="M275.3906 5.5344
L261.3906 5.5344
" />
<path d="M275.3906 19.5344
L275.3906 5.5344
" />
<path d="M232.5281 19.5344
L232.5281 5.5344
" />
<path d="M232.5281 5.5344
L218.5281 5.5344
" />
<path d="M218.5281 19.5344
L232.5281 19.5344
" />
<path d="M218.5281 5.5344
L218.5281 19.5344
" />
<path d="M223.2906 67.4469
L223.2906 81.4469
" />
<path d="M223.2906 81.4469
L237.2906 81.4469
" />
<path d="M237.2906 67.4469
L223.2906 67.4469
" />
<path d="M237.2906 81.4469
L237.2906 67.4469
" />
<path d="M42.3156 67.4469
L42.3156 81.4469
" />
<path d="M42.3156 81.4469
L56.3156 81.4469
" />
<path d="M56.3156 67.4469
L42.3156 67.4469
" />
<path d="M56.3156 81.4469
L56.3156 67.4469
" />
<path d="M175.3781 38.5844
L175.3781 24.5844
" />
<path d="M175.3781 24.5844
L161.3781 24.5844
" />
<path d="M161.3781 38.5844
L175.3781 38.5844
" />
<path d="M161.3781 24.5844
L161.3781 38.5844
" />
<circle cx="196.9531" cy="6.1844" r="2.4500" /> 
<path d="M23.2656 67.4469
L23.2656 81.4469
" />
<path d="M23.2656 81.4469
L37.2656 81.4469
" />
<path d="M37.2656 67.4469
L23.2656 67.4469
" />
<path d="M37.2656 81.4469
L37.2656 67.4469
" />
<path d="M137.2781 38.5844
L137.2781 24.5844
" />
<path d="M137.2781 24.5844
L123.2781 24.5844
" />
<path d="M123.2781 38.5844
L137.2781 38.5844
" />
<path d="M123.2781 24.5844
L123.2781 38.5844
" />
<path d="M94.4156 19.5344
L94.4156 5.5344
" />
<path d="M94.4156 5.5344
L80.4156 5.5344
" />
<path d="M80.4156 19.5344
L94.4156 19.5344
" />
<path d="M80.4156 5.5344
L80.4156 19.5344
" />
<path d="M275.3906 38.5844
L275.3906 24.5844
" />
<path d="M275.3906 24.5844
L261.3906 24.5844
" />
<path d="M261.3906 38.5844
L275.3906 38.5844
" />
<path d="M261.3906 24.5844
L261.3906 38.5844
" />
<path d="M142.3281 43.6344
L142.3281 57.6344
" />
<path d="M142.3281 57.6344
L156.3281 57.6344
" />
<path d="M156.3281 43.6344
L142.3281 43.6344
" />
<path d="M156.3281 57.6344
L156.3281 43.6344
" />
<path d="M161.3781 67.4469
L161.3781 81.4469
" />
<path d="M161.3781 81.4469
L175.3781 81.4469
" />
<path d="M175.3781 67.4469
L161.3781 67.4469
" />
<path d="M175.3781 81.4469
L175.3781 67.4469
" />
<path d="M75.3656 19.5344
L75.3656 5.5344
" />
<path d="M75.3656 5.5344
L61.3656 5.5344
" />
<path d="M61.3656 19.5344
L75.3656 19.5344
" />
<path d="M61.3656 5.5344
L61.3656 19.5344
" />
<path d="M137.2781 19.5344
L137.2781 5.5344
" />
<path d="M137.2781 5.5344
L123.2781 5.5344
" />
<path d="M123.2781 19.5344
L137.2781 19.5344
" />
<path d="M123.2781 5.5344
L123.2781 19.5344
" />
<path d="M113.4656 38.5844
L113.4656 24.5844
" />
<path d="M113.4656 24.5844
L99.4656 24.5844
" />
<path d="M99.4656 38.5844
L113.4656 38.5844
" />
<path d="M99.4656 24.5844
L99.4656 38.5844
" />
<circle cx="196.9531" cy="80.7969" r="2.4500" /> 
<path d="M61.3656 67.4469
L61.3656 81.4469
" />
<path d="M61.3656 81.4469
L75.3656 81.4469
" />
<path d="M75.3656 67.4469
L61.3656 67.4469
" />
<path d="M75.3656 81.4469
L75.3656 67.4469
" />
<circle cx="268.3906" cy="22.0594" r="2.4500" /> 
<path d="M61.3656 43.6344
L61.3656 57.6344
" />
<path d="M61.3656 57.6344
L75.3656 57.6344
" />
<path d="M75.3656 43.6344
L61.3656 43.6344
" />
<path d="M75.3656 57.6344
L75.3656 43.6344
" />
<path d="M18.2156 19.5344
L18.2156 5.5344
" />
<path d="M18.2156 5.5344
L4.2156 5.5344
" />
<path d="M4.2156 19.5344
L18.2156 19.5344
" />
<path d="M4.2156 5.5344
L4.2156 19.5344
" />
<path d="M199.4781 43.6344
L199.4781 57.6344
" />
<path d="M199.4781 57.6344
L213.4781 57.6344
" />
<path d="M213.4781 43.6344
L199.4781 43.6344
" />
<path d="M213.4781 57.6344
L213.4781 43.6344
" />
<path d="M37.2656 19.5344
L37.2656 5.5344
" />
<path d="M37.2656 5.5344
L23.2656 5.5344
" />
<path d="M23.2656 19.5344
L37.2656 19.5344
" />
<path d="M23.2656 5.5344
L23.2656 19.5344
" />
<path d="M18.2156 38.5844
L18.2156 24.5844
" />
<path d="M18.2156 24.5844
L4.2156 24.5844
" />
<path d="M4.2156 38.5844
L18.2156 38.5844
" />
<path d="M4.2156 24.5844
L4.2156 38.5844
" />
<path d="M194.4281 19.5344
L194.4281 5.5344
" />
<path d="M194.4281 5.5344
L180.4281 5.5344
" />
<path d="M180.4281 19.5344
L194.4281 19.5344
" />
<path d="M180.4281 5.5344
L180.4281 19.5344
" />
<path d="M56.3156 38.5844
L56.3156 24.5844
" />
<path d="M56.3156 24.5844
L42.3156 24.5844
" />
<path d="M42.3156 38.5844
L56.3156 38.5844
" />
<path d="M42.3156 24.5844
L42.3156 38.5844
" />
<path d="M23.2656 43.6344
L23.2656 57.6344
" />
<path d="M23.2656 57.6344
L37.2656 57.6344
" />
<path d="M37.2656 43.6344
L23.2656 43.6344
" />
<path d="M37.2656 57.6344
L37.2656 43.6344
" />
<circle cx="39.7906" cy="80.7969" r="2.4500" /> 
<path d="M180.4281 43.6344
L180.4281 57.6344
" />
<path d="M180.4281 57.6344
L194.4281 57.6344
" />
<path d="M194.4281 43.6344
L180.4281 43.6344
" />
<path d="M194.4281 57.6344
L194.4281 43.6344
" />
<path d="M242.3406 48.3969
L242.3406 62.3969
" />
<path d="M242.3406 62.3969
L256.3406 62.3969
" />
<path d="M256.3406 48.3969
L242.3406 48.3969
" />
<path d="M256.3406 62.3969
L256.3406 48.3969
" />
<path d="M156.3281 19.5344
L156.3281 5.5344
" />
<path d="M156.3281 5.5344
L142.3281 5.5344
" />
<path d="M142.3281 19.5344
L156.3281 19.5344
" />
<path d="M142.3281 5.5344
L142.3281 19.5344
" />
<path d="M213.4781 38.5844
L213.4781 24.5844
" />
<path d="M213.4781 24.5844
L199.4781 24.5844
" />
<path d="M199.4781 38.5844
L213.4781 38.5844
" />
<path d="M199.4781 24.5844
L199.4781 38.5844
" />
<path d="M256.3406 38.5844
L256.3406 24.5844
" />
<path d="M256.3406 24.5844
L242.3406 24.5844
" />
<path d="M242.3406 38.5844
L256.3406 38.5844
" />
<path d="M242.3406 24.5844
L242.3406 38.5844
" />
<path d="M4.2156 43.6344
L4.2156 57.6344
" />
<path d="M4.2156 57.6344
L18.2156 57.6344
" />
<path d="M18.2156 43.6344
L4.2156 43.6344
" />
<path d="M18.2156 57.6344
L18.2156 43.6344
" />
<path d="M213.4781 19.5344
L213.4781 5.5344
" />
<path d="M213.4781 5.5344
L199.4781 5.5344
" />
<path d="M199.4781 19.5344
L213.4781 19.5344
" />
<path d="M199.4781 5.5344
L199.4781 19.5344
" />
<path d="M242.3406 5.5344
L242.3406 19.5344
" />
<path d="M242.3406 19.5344
L256.3406 19.5344
" />
<path d="M256.3406 5.5344
L242.3406 5.5344
" />
<path d="M256.3406 19.5344
L256.3406 5.5344
" />
<path d="M261.3906 67.4469
L261.3906 81.4469
" />
<path d="M261.3906 81.4469
L275.3906 81.4469
" />
<path d="M275.3906 67.4469
L261.3906 67.4469
" />
<path d="M275.3906 81.4469
L275.3906 67.4469
" />
<path d="M42.3156 43.6344
L42.3156 57.6344
" />
<path d="M42.3156 57.6344
L56.3156 57.6344
" />
<path d="M56.3156 43.6344
L42.3156 43.6344
" />
<path d="M56.3156 57.6344
L56.3156 43.6344
" />
<path d="M113.4656 19.5344
L113.4656 5.5344
" />
<path d="M113.4656 5.5344
L99.4656 5.5344
" />
<path d="M99.4656 19.5344
L113.4656 19.5344
" />
<path d="M99.4656 5.5344
L99.4656 19.5344
" />
<path d="M194.4281 38.5844
L194.4281 24.5844
" />
<path d="M194.4281 24.5844
L180.4281 24.5844
" />
<path d="M180.4281 38.5844
L194.4281 38.5844
" />
<path d="M180.4281 24.5844
L180.4281 38.5844
" />
<path d="M180.4281 67.4469
L180.4281 81.4469
" />
<path d="M180.4281 81.4469
L194.4281 81.4469
" />
<path d="M194.4281 67.4469
L180.4281 67.4469
" />
<path d="M194.4281 81.4469
L194.4281 67.4469
" />
<path d="M94.4156 38.5844
L94.4156 24.5844
" />
<path d="M94.4156 24.5844
L80.4156 24.5844
" />
<path d="M80.4156 38.5844
L94.4156 38.5844
" />
<path d="M80.4156 24.5844
L80.4156 38.5844
" />
<path d="M132.8031 67.4469
L132.8031 81.4469
" />
<path d="M132.8031 81.4469
L146.8031 81.4469
" />
<path d="M146.8031 67.4469
L132.8031 67.4469
" />
<path d="M146.8031 81.4469
L146.8031 67.4469
" />
<path d="M37.2656 38.5844
L37.2656 24.5844
" />
<path d="M37.2656 24.5844
L23.2656 24.5844
" />
<path d="M23.2656 38.5844
L37.2656 38.5844
" />
<path d="M23.2656 24.5844
L23.2656 38.5844
" />
<path d="M4.2156 67.4469
L4.2156 81.4469
" />
<path d="M4.2156 81.4469
L18.2156 81.4469
" />
<path d="M18.2156 67.4469
L4.2156 67.4469
" />
<path d="M18.2156 81.4469
L18.2156 67.4469
" />
<path d="M199.4781 67.4469
L199.4781 81.4469
" />
<path d="M199.4781 81.4469
L213.4781 81.4469
" />
<path d="M213.4781 67.4469
L199.4781 67.4469
" />
<path d="M213.4781 81.4469
L213.4781 67.4469
" />
<g >
</g>
<g >
</g>
<g >
</g>
<g >
</g>
<g >
</g>
<g >
</g>
<g >
</g>
<g >
</g>
<g >
</g>
<g >
</g>
<g >
</g>
<g >
</g>
<g >
</g>
<g >
</g>
<g >
</g>
<g >
</g>
<g >
</g>
<g >
</g>
<g >
</g>
<g >
</g>
<g >
</g>
<g >
</g>
<g >
</g>
<g >
</g>
<g >
</g>
<g >
</g>
<g >
</g>
<g >
</g>
<g >
</g>
<g >
</g>
<g >
</g>
<g >
</g>
<g >
</g>
<g >
</g>
<g >
</g>
<g >
</g>
<g >
</g>
<g >
</g>
<g >
</g>
<g >
</g>
<g >
</g>
<g >
</g>
<g >
</g>
<g >
</g>
<g >
</g>
<g >
</g>
<g >
</g>
<g >
</g>
<g >
</g>
<g >
</g>
<g >
</g>
<g >
</g>
<g >
</g>
<g >
</g>
<g >
</g>
<g >
</g>
<g >
</g>
<g >
</g>
<g >
</g>
<g >
</g>
<g >
</g>
<g >
</g>
<g >
</g>
<g >
</g>
<g >
</g>
<g >
</g>
<g >
</g>
<g >
</g>
<g >
</g>
<g >
</g>
<g >
</g>
<g >
</g>
<g >
</g>
<g >
</g>
<g >
</g>
<g >
</g>
<g >
</g>
<g >
</g>
<g >
</g>
<g >
</g>
<g >
</g>
<g >
</g>
<g >
</g>
<g >
</g>
<g >
</g>
<g >
</g>
<g >
</g>
<g >
</g>
<g >
</g>
<g >
</g>
<g >
</g>
<g >
</g>
<g >
</g>
<g >
</g>
<g >
</g>
<g >
</g>
<g >
</g>
<g >
</g>
<g >
</g>
<g >
</g>
<g >
</g>
<g >
</g>
<g >
</g>
<g >
</g>
<g >
</g>
<g >
</g>
<g >
</g>
<g >
</g>
<g >
</g>
<g >
</g>
<g >
</g>
<g >
</g>
<g >
</g>
<g >
</g>
<g >
</g>
<g >
</g>
<g >
</g>
<g >
</g>
<g >
</g>
<g >
</g>
<g >
</g>
<g >
</g>
<g >
</g>
<g >
</g>
<g >
</g>
<g >
</g>
<g >
</g>
<g >
</g>
<g >
</g>
<g >
</g>
<g >
</g>
<g >
</g>
<g >
</g>
<g >
</g>
<g >
</g>
<g >
</g>
<g >
</g>
<g >
</g>
<g >
</g>
<g >
</g>
<g >
</g>
<g >
</g>
<g >
</g>
<g >
</g>
<g >
</g>
<g >
</g>
<g >
</g>
<g >
</g>
<g >
</g>
<g >
</g>
</g>
<g style="fill:#000000; fill-opacity:0.0; 
stroke:#000000; stroke-width:0.0500; stroke-opacity:1; 
stroke-linecap:round; stroke-linejoin:round;">
</g>
<g style="fill:#D0D2CD; fill-opacity:0.0; 
stroke:#D0D2CD; stroke-width:0.0500; stroke-opacity:1; 
stroke-linecap:round; stroke-linejoin:round;">
</g>
<g style="fill:#D0D2CD; fill-opacity:0.0; 
stroke:#D0D2CD; stroke-width:0.1000; stroke-opacity:1; 
stroke-linecap:round; stroke-linejoin:round;">
<path d="M61.6187 80.7969 A2.7781 2.7781 0.0 0 0 56.0625 80.7969" />
<path d="M2.4844 35.9500
L2.4844 6.9781
" />
<path d="M253.7062 83.1781 A2.3813 2.3813 0.0 0 0 256.0875 80.7969" />
<path d="M5.6594 3.8031
L72.7313 3.8031
" />
<path d="M277.1219 6.9781
L277.1219 80.0031
" />
<path d="M172.7437 83.1781 A2.3813 2.3813 0.0 0 0 175.1250 80.7969" />
<path d="M53.6812 83.1781 A2.3813 2.3813 0.0 0 0 56.0625 80.7969" />
<path d="M4.8656 43.8875 A2.7781 2.7781 0.0 0 0 4.8656 38.3313" />
<path d="M221.1625 3.8031
L273.9469 3.8031
" />
<path d="M221.1625 3.8031 A2.3813 2.3813 0.0 0 0 218.7813 6.1844" />
<path d="M5.6594 3.8031 A3.1750 3.1750 0.0 0 0 2.4844 6.9781" />
<path d="M273.9469 83.1782 A3.1750 3.1750 0.0 0 0 277.1219 80.0031" />
<path d="M253.7062 83.1781
L183.0625 83.1781
" />
<path d="M2.4844 80.0031 A3.1750 3.1750 0.0 0 0 5.6594 83.1781" />
<path d="M83.0500 3.8031
L210.8438 3.8031
" />
<path d="M53.6812 83.1781
L5.6594 83.1781
" />
<path d="M261.6437 80.7969 A2.7781 2.7781 0.0 0 0 256.0875 80.7969" />
<path d="M75.1124 6.1844 A2.3812 2.3812 0.0 0 0 72.7312 3.8031" />
<path d="M180.6813 80.7969 A2.3813 2.3813 0.0 0 0 183.0625 83.1781" />
<path d="M261.6438 80.7969 A2.3813 2.3813 0.0 0 0 264.0250 83.1781" />
<path d="M2.4844 80.0031
L2.4844 46.2687
" />
<path d="M2.4843 35.9500 A2.3813 2.3813 0.0 0 0 4.8656 38.3313" />
<path d="M64.0000 83.1781
L172.7438 83.1781
" />
<path d="M213.2249 6.1844 A2.3812 2.3812 0.0 0 0 210.8437 3.8031" />
<path d="M180.6812 80.7969 A2.7781 2.7781 0.0 0 0 175.1250 80.7969" />
<path d="M75.1125 6.1844 A2.7781 2.7781 0.0 0 0 80.6688 6.1844" />
<path d="M4.8656 43.8875 A2.3813 2.3813 0.0 0 0 2.4844 46.2687" />
<path d="M61.6188 80.7969 A2.3813 2.3813 0.0 0 0 64.0000 83.1781" />
<path d="M83.0500 3.8031 A2.3813 2.3813 0.0 0 0 80.6688 6.1844" />
<path d="M264.0250 83.1781
L273.9469 83.1781
" />
<path d="M213.2250 6.1844 A2.7781 2.7781 0.0 0 0 218.7812 6.1844" />
<path d="M277.1218 6.9781 A3.1750 3.1750 0.0 0 0 273.9469 3.8031" />
<path d="M274.6497 54.7156
L273.2440 54.7156
" />
<path d="M272.4469 53.8101
L272.4469 52.2212
" />
<path d="M275.4469 52.2212
L275.4469 53.8101
" />
<path d="M273.2440 51.3156
L274.6497 51.3156
" />
<path d="M273.2440 54.7156 A0.5000 0.5000 0.0 0 0 273.0272 54.7651" />
<path d="M272.3786 54.0623 A0.5000 0.5000 0.0 0 0 273.0272 54.7651" />
<path d="M274.8666 54.7651 A0.5000 0.5000 0.0 0 0 274.6497 54.7156" />
<path d="M274.8666 54.7651 A0.5000 0.5000 0.0 0 0 275.5152 54.0623" />
<path d="M275.4469 53.8101 A0.5000 0.5000 0.0 0 0 275.5152 54.0623" />
<path d="M272.3786 54.0623 A0.5000 0.5000 0.0 0 0 272.4469 53.8101" />
<path d="M275.5152 51.9689 A0.5000 0.5000 0.0 0 0 275.4469 52.2212" />
<path d="M272.4469 52.2212 A0.5000 0.5000 0.0 0 0 272.3786 51.9689" />
<path d="M273.0272 51.2661 A0.5000 0.5000 0.0 0 0 272.3786 51.9689" />
<path d="M273.0272 51.2661 A0.5004 0.5004 0.0 0 0 273.2440 51.3156" />
<path d="M275.5152 51.9689 A0.5000 0.5000 0.0 0 0 274.8666 51.2661" />
<path d="M274.6497 51.3156 A0.5005 0.5005 0.0 0 0 274.8666 51.2661" />
<g >
</g>
<g >
</g>
<g >
</g>
<g >
</g>
<g >
</g>
<g >
</g>
<g >
</g>
<g >
</g>
<g >
</g>
<g >
</g>
<g >
</g>
<g >
</g>
<g >
</g>
<g >
</g>
<g >
</g>
<g >
</g>
<g >
</g>
<g >
</g>
<g >
</g>
<g >
</g>
<g >
</g>
<g >
</g>
<g >
</g>
<g >
</g>
<g >
</g>
<g >
</g>
<g >
</g>
<g >
</g>
<g >
</g>
<g >
</g>
<g >
</g>
<g >
</g>
<g >
</g>
<g >
</g>
<g >
</g>
<g >
</g>
<g >
</g>
<g >
</g>
<g >
</g>
<g >
</g>
<g >
</g>
<g >
</g>
<g >
</g>
<g >
</g>
<g >
</g>
<g >
</g>
<g >
</g>
<g >
</g>
<g >
</g>
<g >
</g>
<g >
</g>
<g >
</g>
<g >
</g>
<g >
</g>
<g >
</g>
<g >
</g>
<g >
</g>
<g >
</g>
<g >
</g>
<g >
</g>
<g >
</g>
<g >
</g>
<g >
</g>
<g >
</g>
<g >
</g>
<g >
</g>
<g >
</g>
<g >
</g>
<g >
</g>
<g >
</g>
<g >
</g>
<g >
</g>
<g >
</g>
<g >
</g>
<g >
</g>
<g >
</g>
<g >
</g>
<g >
</g>
<g >
</g>
<g >
</g>
<g >
</g>
<g >
</g>
<g >
</g>
<g >
</g>
<g >
</g>
<g >
</g>
<g >
</g>
<g >
</g>
<g >
</g>
<g >
</g>
<g >
</g>
<g >
</g>
<g >
</g>
<g >
</g>
<g >
</g>
<g >
</g>
<g >
</g>
<g >
</g>
<g >
</g>
<g >
</g>
<g >
</g>
<g >
</g>
<g >
</g>
<g >
</g>
<g >
</g>
<g >
</g>
<g >
</g>
<g >
</g>
<g >
</g>
<g >
</g>
<g >
</g>
<g >
</g>
<g >
</g>
<g >
</g>
<g >
</g>
<g >
</g>
<g >
</g>
<g >
</g>
<g >
</g>
<g >
</g>
<g >
</g>
<g >
</g>
<g >
</g>
<g >
</g>
<g >
</g>
<g >
</g>
<g >
</g>
<g >
</g>
<g >
</g>
<g >
</g>
<g >
</g>
<g >
</g>
<g >
</g>
<g >
</g>
<g >
</g>
<g >
</g>
<g >
</g>
<g >
</g>
<g >
</g>
<g >
</g>
<g >
</g>
<g >
</g>
<g >
</g>
<g >
</g>
<g >
</g>
<g >
</g>
<g >
</g>
<g >
</g>
<g >
</g>
<g >
</g>
</g> 
</svg>
